<svg width="701" height="413" viewBox="0 0 701 413" fill="none" xmlns="http://www.w3.org/2000/svg">
<path d="M208.375 20.451C208.568 16.0369 212.305 12.5983 216.708 12.9673C263.487 16.8877 307.497 37.1568 340.927 70.3542C374.357 103.552 394.933 147.419 399.179 194.169C399.579 198.569 396.167 202.331 391.754 202.555L310.817 206.655C306.405 206.878 302.679 203.475 302.113 199.093C299.196 176.478 288.836 155.385 272.549 139.211C256.262 123.038 235.097 112.825 212.462 110.066C208.077 109.531 204.647 105.828 204.84 101.414L208.375 20.451Z" fill="#5AD221"/>
<path d="M8.16982 204.195C3.75545 204.009 0.310936 200.276 0.673011 195.873C4.51997 149.088 24.7199 105.047 57.8647 71.5645C91.0095 38.0824 134.844 17.4378 181.588 13.1175C185.987 12.7108 189.755 16.1174 189.985 20.5297L194.212 101.46C194.443 105.872 191.045 109.604 186.664 110.176C164.054 113.129 142.977 123.522 126.829 139.834C110.681 156.146 100.502 177.327 97.7778 199.966C97.25 204.353 93.5529 207.788 89.1386 207.602L8.16982 204.195Z" fill="#E9AF1C"/>
<path d="M191.625 404.086C191.432 408.5 187.695 411.938 183.292 411.569C136.513 407.649 92.5031 387.38 59.0732 354.182C25.6432 320.985 5.06742 277.118 0.820508 230.368C0.420789 225.967 3.83326 222.206 8.24588 221.982L89.1825 217.882C93.5952 217.659 97.3215 221.062 97.8868 225.444C100.804 248.059 111.164 269.152 127.451 285.325C143.738 301.499 164.903 311.712 187.538 314.471C191.923 315.006 195.353 318.708 195.16 323.122L191.625 404.086Z" fill="#1D72C0"/>
<path d="M509.375 20.451C509.568 16.0369 513.305 12.5983 517.708 12.9673C564.487 16.8877 608.497 37.1568 641.927 70.3542C675.357 103.552 695.933 147.419 700.179 194.169C700.579 198.569 697.167 202.331 692.754 202.555L611.817 206.655C607.405 206.878 603.679 203.475 603.113 199.093C600.196 176.478 589.836 155.385 573.549 139.211C557.262 123.038 536.097 112.825 513.462 110.066C509.077 109.531 505.647 105.828 505.84 101.414L509.375 20.451Z" fill="#E32AE7"/>
<path d="M309.17 204.195C304.755 204.009 301.311 200.276 301.673 195.873C305.52 149.088 325.72 105.047 358.865 71.5645C392.01 38.0824 435.844 17.4378 482.588 13.1175C486.987 12.7108 490.755 16.1174 490.985 20.5297L495.212 101.46C495.443 105.872 492.045 109.604 487.664 110.176C465.054 113.129 443.977 123.522 427.829 139.834C411.681 156.146 401.502 177.327 398.778 199.966C398.25 204.353 394.553 207.788 390.139 207.602L309.17 204.195Z" fill="#8554C2"/>
<path d="M492.625 404.086C492.432 408.5 488.695 411.938 484.292 411.569C437.513 407.649 393.503 387.38 360.073 354.182C326.643 320.985 306.067 277.118 301.821 230.368C301.421 225.967 304.833 222.206 309.246 221.982L390.183 217.882C394.595 217.659 398.321 221.062 398.887 225.444C401.804 248.059 412.164 269.152 428.451 285.325C444.738 301.499 465.903 311.712 488.538 314.471C492.923 315.006 496.353 318.708 496.16 323.122L492.625 404.086Z" fill="#5AD221"/>
<path d="M391.817 219.643C396.231 219.836 399.67 223.574 399.301 227.977C395.381 274.756 375.112 318.765 341.914 352.195C308.717 385.625 264.85 406.201 218.099 410.448C213.699 410.847 209.937 407.435 209.714 403.022L205.614 322.086C205.39 317.673 208.794 313.947 213.176 313.382C235.791 310.464 256.884 300.104 273.057 283.817C289.231 267.53 299.443 246.366 302.203 223.731C302.737 219.345 306.44 215.916 310.854 216.108L391.817 219.643Z" fill="#0FC1A1"/>
<path d="M692.817 220.643C697.231 220.836 700.67 224.574 700.301 228.977C696.381 275.756 676.112 319.765 642.914 353.195C609.717 386.625 565.85 407.201 519.099 411.448C514.699 411.847 510.937 408.435 510.714 404.022L506.614 323.086C506.39 318.673 509.794 314.947 514.176 314.382C536.791 311.464 557.884 301.104 574.057 284.817C590.231 268.53 600.443 247.366 603.203 224.731C603.737 220.345 607.44 216.916 611.854 217.108L692.817 220.643Z" fill="#BABABA"/>
<path d="M293.638 330.858L291.937 332.56L291.044 331.666L292.745 329.965C293.041 329.669 293.233 329.382 293.32 329.103C293.406 328.825 293.408 328.56 293.324 328.309C293.24 328.052 293.089 327.814 292.871 327.595C292.664 327.389 292.428 327.239 292.162 327.146C291.895 327.048 291.615 327.034 291.322 327.106C291.029 327.178 290.734 327.362 290.438 327.658L289.082 329.014L294.72 334.651L293.593 335.778L287.058 329.243L289.54 326.76C290.046 326.255 290.565 325.915 291.098 325.742C291.63 325.562 292.147 325.537 292.646 325.665C293.143 325.791 293.592 326.054 293.993 326.455C294.415 326.877 294.684 327.332 294.801 327.82C294.917 328.307 294.879 328.81 294.684 329.328C294.493 329.842 294.144 330.353 293.638 330.858ZM295.663 322.38L299.375 329.997L298.194 331.177L294.119 322.182L294.873 321.428L295.663 322.38ZM302.961 326.41L295.339 322.703L294.383 321.917L295.142 321.159L304.146 325.225L302.961 326.41ZM300.443 324.081L301.336 324.974L297.781 328.529L296.888 327.636L300.443 324.081ZM306.538 318.578L307.66 317.456C308.052 317.92 308.314 318.421 308.446 318.959C308.574 319.495 308.55 320.043 308.374 320.602C308.197 321.162 307.846 321.705 307.319 322.232C306.915 322.635 306.48 322.927 306.013 323.107C305.543 323.283 305.06 323.354 304.563 323.318C304.063 323.279 303.562 323.131 303.06 322.873C302.56 322.613 302.075 322.248 301.605 321.778L301.062 321.235C300.592 320.765 300.229 320.279 299.971 319.776C299.717 319.271 299.572 318.766 299.536 318.264C299.497 317.758 299.569 317.27 299.752 316.8C299.937 316.328 300.235 315.886 300.645 315.476C301.165 314.956 301.701 314.612 302.252 314.444C302.802 314.276 303.345 314.263 303.881 314.404C304.42 314.541 304.93 314.806 305.412 315.198L304.289 316.32C303.978 316.069 303.671 315.894 303.369 315.795C303.07 315.693 302.771 315.687 302.472 315.777C302.169 315.864 301.861 316.064 301.547 316.379C301.29 316.636 301.113 316.908 301.017 317.195C300.922 317.483 300.902 317.783 300.959 318.098C301.016 318.412 301.147 318.738 301.354 319.076C301.56 319.408 301.837 319.748 302.184 320.095L302.736 320.647C303.066 320.976 303.393 321.247 303.719 321.46C304.046 321.666 304.364 321.805 304.675 321.877C304.99 321.946 305.293 321.938 305.587 321.854C305.88 321.771 306.158 321.597 306.421 321.334C306.742 321.014 306.95 320.704 307.045 320.405C307.144 320.102 307.147 319.803 307.054 319.507C306.962 319.205 306.789 318.895 306.538 318.578ZM305.403 310.898L311.938 317.433L310.811 318.56L304.276 312.025L305.403 310.898ZM309.33 306.971L309.828 312.765L309.918 315.871L308.603 314.951L308.351 312.545L307.956 308.344L309.33 306.971ZM314.653 314.718L309.406 313.771L309.415 312.227L315.991 313.38L314.653 314.718ZM313.5 304.542L317.212 312.159L316.031 313.34L311.956 304.345L312.71 303.591L313.5 304.542ZM320.798 308.573L313.177 304.866L312.221 304.08L312.979 303.322L321.983 307.388L320.798 308.573ZM318.28 306.244L319.173 307.137L315.618 310.692L314.725 309.798L318.28 306.244ZM324.321 298.371L326.817 300.866C326.847 301.082 326.836 301.362 326.786 301.706C326.735 302.044 326.6 302.427 326.382 302.855C326.163 303.283 325.813 303.738 325.331 304.219C324.921 304.629 324.477 304.936 323.998 305.139C323.517 305.34 323.017 305.43 322.499 305.409C321.984 305.385 321.467 305.247 320.946 304.996C320.422 304.741 319.912 304.366 319.416 303.869L318.962 303.416C318.468 302.922 318.09 302.421 317.827 301.912C317.563 301.398 317.414 300.889 317.378 300.386C317.342 299.883 317.42 299.399 317.611 298.932C317.803 298.459 318.108 298.013 318.527 297.594C319.062 297.059 319.595 296.706 320.125 296.535C320.654 296.358 321.172 296.332 321.678 296.454C322.183 296.577 322.664 296.815 323.119 297.168L322.014 298.272C321.751 298.081 321.477 297.947 321.193 297.873C320.912 297.795 320.624 297.801 320.331 297.891C320.038 297.974 319.74 298.167 319.438 298.47C319.178 298.73 318.998 299.008 318.899 299.304C318.801 299.601 318.781 299.91 318.841 300.234C318.904 300.554 319.04 300.884 319.249 301.225C319.459 301.567 319.74 301.914 320.093 302.267L320.556 302.729C320.915 303.088 321.271 303.369 321.624 303.573C321.98 303.773 322.326 303.898 322.661 303.945C322.999 303.99 323.322 303.957 323.63 303.847C323.935 303.733 324.22 303.545 324.483 303.281C324.74 303.024 324.93 302.792 325.053 302.585C325.173 302.376 325.251 302.193 325.286 302.038C325.322 301.876 325.339 301.74 325.336 301.629L324.039 300.332L322.679 301.692L321.839 300.853L324.321 298.371ZM332.293 295.292L333.186 296.185L329.717 299.655L328.823 298.761L332.293 295.292ZM323.5 292.801L330.035 299.336L328.909 300.462L322.373 293.927L323.5 292.801ZM328.927 292.832L329.806 293.712L326.79 296.728L325.91 295.848L328.927 292.832ZM326.629 289.672L327.526 290.57L324.079 294.017L323.181 293.119L326.629 289.672Z" fill="white"/>
<path d="M589.283 328.018L590.288 327.013L597.218 330.164L594.063 323.238L595.068 322.232L599.108 331.263L598.309 332.062L589.283 328.018ZM588.825 328.476L589.781 327.52L594.31 331.717L596.482 333.889L595.36 335.011L588.825 328.476ZM594.57 322.731L595.531 321.77L602.066 328.305L600.939 329.432L598.767 327.26L594.57 322.731ZM605.167 318.31L605.526 318.669C606.02 319.162 606.399 319.67 606.662 320.19C606.925 320.711 607.075 321.229 607.111 321.743C607.15 322.255 607.076 322.75 606.891 323.229C606.702 323.705 606.406 324.145 606.002 324.549C605.601 324.949 605.163 325.244 604.687 325.433C604.211 325.615 603.715 325.69 603.197 325.657C602.679 325.624 602.157 325.479 601.63 325.222C601.107 324.961 600.598 324.584 600.104 324.091L599.745 323.732C599.251 323.238 598.876 322.731 598.619 322.21C598.358 321.686 598.21 321.167 598.174 320.653C598.138 320.132 598.213 319.635 598.399 319.162C598.584 318.684 598.877 318.244 599.278 317.843C599.682 317.439 600.124 317.144 600.603 316.959C601.078 316.77 601.575 316.695 602.093 316.734C602.607 316.77 603.125 316.92 603.646 317.183C604.166 317.44 604.674 317.816 605.167 318.31ZM604.4 319.795L604.032 319.427C603.667 319.062 603.309 318.776 602.959 318.57C602.609 318.357 602.271 318.226 601.945 318.175C601.618 318.118 601.309 318.14 601.015 318.242C600.719 318.341 600.447 318.515 600.199 318.763C599.95 319.011 599.778 319.282 599.682 319.575C599.584 319.866 599.561 320.175 599.615 320.504C599.669 320.828 599.801 321.166 600.01 321.519C600.217 321.869 600.502 322.226 600.867 322.592L601.235 322.96C601.6 323.325 601.96 323.612 602.313 323.821C602.666 324.031 603.008 324.164 603.34 324.221C603.673 324.272 603.985 324.249 604.279 324.154C604.569 324.055 604.838 323.881 605.086 323.633C605.338 323.382 605.513 323.111 605.612 322.82C605.707 322.527 605.727 322.217 605.67 321.891C605.61 321.562 605.474 321.223 605.262 320.872C605.052 320.519 604.765 320.16 604.4 319.795ZM608.39 308.911L614.925 315.446L613.799 316.572L606.186 314.822L610.868 319.503L609.741 320.63L603.206 314.095L604.332 312.968L611.963 314.719L607.272 310.028L608.39 308.911ZM610.935 306.366L617.47 312.901L616.344 314.028L609.808 307.492L610.935 306.366ZM614.889 302.411L621.425 308.947L620.307 310.064L613.772 303.529L614.889 302.411ZM616.941 300.36L617.838 301.258L612.636 306.46L611.738 305.562L616.941 300.36ZM625.976 297.501L626.335 297.86C626.829 298.354 627.207 298.861 627.47 299.382C627.734 299.902 627.883 300.42 627.919 300.935C627.958 301.446 627.885 301.942 627.699 302.42C627.511 302.896 627.215 303.336 626.811 303.74C626.41 304.141 625.971 304.436 625.496 304.624C625.02 304.807 624.523 304.882 624.005 304.849C623.488 304.816 622.966 304.671 622.439 304.413C621.915 304.153 621.407 303.776 620.913 303.282L620.554 302.923C620.06 302.429 619.684 301.922 619.427 301.401C619.167 300.878 619.019 300.359 618.983 299.844C618.947 299.323 619.022 298.827 619.207 298.354C619.393 297.875 619.686 297.435 620.087 297.034C620.491 296.63 620.932 296.335 621.411 296.15C621.887 295.961 622.384 295.887 622.901 295.926C623.416 295.961 623.934 296.111 624.454 296.374C624.975 296.632 625.482 297.007 625.976 297.501ZM625.208 298.987L624.84 298.619C624.475 298.254 624.118 297.968 623.768 297.761C623.417 297.549 623.079 297.417 622.753 297.366C622.427 297.309 622.117 297.332 621.824 297.434C621.528 297.532 621.255 297.706 621.007 297.954C620.759 298.203 620.587 298.473 620.491 298.767C620.392 299.057 620.37 299.367 620.424 299.696C620.477 300.019 620.609 300.357 620.819 300.71C621.025 301.06 621.311 301.418 621.676 301.783L622.044 302.151C622.409 302.516 622.768 302.803 623.121 303.013C623.474 303.222 623.817 303.355 624.149 303.412C624.481 303.463 624.794 303.441 625.087 303.345C625.377 303.246 625.647 303.073 625.895 302.824C626.146 302.573 626.321 302.302 626.42 302.012C626.516 301.719 626.535 301.409 626.479 301.083C626.419 300.754 626.283 300.414 626.07 300.064C625.861 299.711 625.573 299.352 625.208 298.987ZM624.014 293.286L626.326 290.975C626.823 290.478 627.321 290.129 627.821 289.929C628.32 289.728 628.81 289.682 629.288 289.79C629.767 289.892 630.22 290.156 630.648 290.584C630.974 290.91 631.202 291.258 631.331 291.626C631.459 291.994 631.5 292.372 631.452 292.761C631.401 293.147 631.271 293.538 631.061 293.933L630.886 294.44L628.808 296.518L627.906 295.634L629.463 294.076C629.733 293.807 629.909 293.535 629.993 293.259C630.077 292.984 630.081 292.719 630.006 292.465C629.932 292.205 629.79 291.97 629.58 291.76C629.353 291.533 629.11 291.38 628.853 291.302C628.596 291.219 628.331 291.223 628.058 291.316C627.783 291.406 627.505 291.591 627.224 291.872L626.039 293.057L631.676 298.695L630.55 299.822L624.014 293.286ZM634.28 296.092L629.809 294.691L630.985 293.506L635.424 294.83L635.482 294.889L634.28 296.092Z" fill="white"/>
<path d="M265.092 78.9477L263.008 77.7448L263.64 76.6509L265.723 77.8537C266.086 78.0632 266.413 78.1738 266.704 78.1856C266.996 78.1974 267.252 78.1303 267.473 77.9844C267.7 77.8368 267.89 77.6293 268.045 77.3618C268.191 77.1089 268.274 76.8418 268.295 76.5606C268.321 76.2778 268.262 76.004 268.117 75.7394C267.971 75.4747 267.717 75.2376 267.355 75.0282L265.694 74.0697L261.708 80.9742L260.328 80.1776L264.949 72.1736L267.989 73.9287C268.609 74.2863 269.071 74.6999 269.377 75.1694C269.688 75.6374 269.846 76.1295 269.851 76.6454C269.858 77.1578 269.72 77.6595 269.437 78.1506C269.138 78.6673 268.769 79.0452 268.328 79.2841C267.887 79.5231 267.391 79.6156 266.841 79.5617C266.294 79.5099 265.711 79.3053 265.092 78.9477ZM273.164 86.1295L272.532 87.2235L268.514 84.9034L269.145 83.8094L273.164 86.1295ZM273.52 77.1216L268.898 85.1256L267.519 84.3289L272.14 76.325L273.52 77.1216ZM280.831 82.7647L274.434 88.3216L272.988 87.4869L280.622 81.2222L281.545 81.7554L280.831 82.7647ZM278.826 90.8575L280.435 82.5362L280.946 81.4094L281.875 81.9458L280.278 91.6954L278.826 90.8575ZM280.425 87.8223L279.793 88.9163L275.439 86.4026L276.071 85.3087L280.425 87.8223ZM292.144 87.8745L287.523 95.8785L286.143 95.0819L285.864 87.2757L282.554 93.0093L281.174 92.2127L285.795 84.2087L287.175 85.0054L287.459 92.8288L290.775 87.0842L292.144 87.8745Z" fill="white"/>
<path d="M77.9981 303.926L85.0584 300.303L86.3017 301.547L77.4235 305.739L76.5842 304.9L77.9981 303.926ZM81.7504 296.995L78.1148 304.042L77.1542 305.47L76.3104 304.626L80.5116 295.757L81.7504 296.995ZM85.6689 312.198L84.7757 313.091L81.3061 309.621L82.1993 308.728L85.6689 312.198ZM88.16 303.405L81.6248 309.94L80.4982 308.813L87.0334 302.278L88.16 303.405ZM88.1286 308.831L87.2488 309.711L84.2326 306.695L85.1123 305.815L88.1286 308.831ZM91.2884 306.533L90.3907 307.431L86.9436 303.984L87.8413 303.086L91.2884 306.533ZM92.231 307.476L94.5426 309.787C95.0393 310.284 95.3879 310.782 95.5884 311.282C95.7889 311.782 95.8353 312.271 95.7275 312.75C95.6258 313.229 95.361 313.682 94.9331 314.11C94.6069 314.436 94.2598 314.663 93.8917 314.792C93.5237 314.921 93.1452 314.961 92.7562 314.913C92.3702 314.862 91.9797 314.732 91.5847 314.523L91.0775 314.348L88.9993 312.27L89.8835 311.367L91.441 312.925C91.7104 313.194 91.9827 313.371 92.2579 313.455C92.5332 313.538 92.7981 313.543 93.0524 313.468C93.3127 313.393 93.5476 313.251 93.7571 313.042C93.9845 312.814 94.1371 312.572 94.2149 312.315C94.2987 312.057 94.2942 311.792 94.2015 311.52C94.1117 311.245 93.9262 310.966 93.6449 310.685L92.4599 309.5L86.8224 315.138L85.6958 314.011L92.231 307.476ZM89.4257 317.741L90.8261 313.271L92.0111 314.447L90.687 318.886L90.6286 318.944L89.4257 317.741ZM99.2241 314.469L92.6888 321.004L91.5622 319.878L98.0974 313.342L99.2241 314.469ZM101.751 316.996L95.2158 323.531L94.0892 322.405L100.624 315.869L101.751 316.996ZM101.558 322.521L100.665 323.414L97.7114 320.461L98.6046 319.568L101.558 322.521ZM104.79 320.035L103.892 320.932L100.566 317.606L101.464 316.709L104.79 320.035ZM106.311 321.556L104.709 326.193L109.346 324.59L110.593 325.838L104.265 327.768L101.859 330.174L100.723 329.039L103.129 326.633L105.059 320.304L106.311 321.556Z" fill="white"/>
<path d="M581.423 89.5184L582.545 90.6405C582.081 91.0325 581.58 91.2944 581.041 91.426C580.505 91.5547 579.958 91.5308 579.398 91.3542C578.839 91.1777 578.296 90.8261 577.769 90.2994C577.365 89.8955 577.073 89.4601 576.894 88.9933C576.717 88.5235 576.647 88.0402 576.683 87.5435C576.722 87.0438 576.87 86.5426 577.127 86.0399C577.387 85.5401 577.752 85.0554 578.222 84.5856L578.765 84.0425C579.235 83.5727 579.721 83.2091 580.224 82.9518C580.73 82.6974 581.234 82.5523 581.737 82.5164C582.242 82.4775 582.73 82.5493 583.2 82.7319C583.673 82.9174 584.114 83.2151 584.524 83.6251C585.045 84.1457 585.389 84.6814 585.556 85.2319C585.724 85.7825 585.737 86.3256 585.597 86.8613C585.459 87.3999 585.194 87.9101 584.802 88.3918L583.68 87.2697C583.932 86.9585 584.107 86.6518 584.205 86.3496C584.307 86.0503 584.313 85.7511 584.223 85.4519C584.137 85.1496 583.936 84.8414 583.622 84.5272C583.365 84.2699 583.092 84.0934 582.805 83.9976C582.518 83.9019 582.217 83.8824 581.903 83.9393C581.589 83.9961 581.262 84.1278 580.924 84.3342C580.592 84.5407 580.253 84.8175 579.905 85.1646L579.353 85.7167C579.024 86.0458 578.753 86.3735 578.541 86.6997C578.334 87.0258 578.195 87.3445 578.123 87.6557C578.055 87.9699 578.062 88.2736 578.146 88.5669C578.23 88.8601 578.403 89.1384 578.667 89.4017C578.987 89.7219 579.296 89.9299 579.596 90.0256C579.898 90.1244 580.197 90.1274 580.493 90.0346C580.796 89.9418 581.105 89.7698 581.423 89.5184ZM590.099 95.5554L589.74 95.9145C589.246 96.4082 588.739 96.7868 588.218 97.0501C587.697 97.3134 587.18 97.463 586.665 97.4989C586.153 97.5378 585.658 97.4645 585.179 97.279C584.704 97.0905 584.264 96.7942 583.86 96.3903C583.459 95.9893 583.164 95.5509 582.976 95.0752C582.793 94.5994 582.718 94.1027 582.751 93.585C582.784 93.0673 582.929 92.5452 583.186 92.0185C583.447 91.4949 583.824 90.9862 584.318 90.4924L584.677 90.1333C585.17 89.6396 585.678 89.2641 586.198 89.0067C586.722 88.7464 587.241 88.5983 587.756 88.5624C588.276 88.5265 588.773 88.6013 589.246 88.7868C589.725 88.9723 590.165 89.2656 590.566 89.6665C590.969 90.0705 591.264 90.5119 591.45 90.9906C591.638 91.4664 591.713 91.9631 591.674 92.4808C591.638 92.9955 591.489 93.5132 591.225 94.0338C590.968 94.5545 590.592 95.0617 590.099 95.5554ZM588.613 94.7879L588.981 94.4198C589.346 94.0548 589.632 93.6972 589.838 93.3471C590.051 92.997 590.183 92.6589 590.233 92.3327C590.29 92.0065 590.268 91.6968 590.166 91.4036C590.067 91.1073 589.894 90.835 589.645 90.5867C589.397 90.3383 589.126 90.1663 588.833 90.0705C588.543 89.9718 588.233 89.9493 587.904 90.0032C587.581 90.057 587.243 90.1887 586.889 90.3982C586.539 90.6046 586.182 90.8904 585.817 91.2555L585.449 91.6235C585.084 91.9886 584.796 92.3477 584.587 92.7008C584.377 93.0538 584.244 93.3965 584.187 93.7286C584.137 94.0608 584.159 94.3735 584.255 94.6667C584.353 94.957 584.527 95.2263 584.775 95.4746C585.027 95.726 585.298 95.901 585.588 95.9998C585.881 96.0955 586.191 96.115 586.517 96.0581C586.846 95.9983 587.186 95.8621 587.536 95.6497C587.889 95.4402 588.248 95.153 588.613 94.7879ZM599.498 98.7781L592.962 105.313L591.836 104.187L593.586 96.5743L588.905 101.256L587.778 100.129L594.313 93.594L595.44 94.7206L593.689 102.351L598.38 97.6605L599.498 98.7781ZM601.966 101.247L595.431 107.782L594.304 106.655L600.84 100.12L601.966 101.247ZM601.773 106.772L600.88 107.665L597.927 104.712L598.82 103.819L601.773 106.772ZM605.005 104.285L604.107 105.183L600.781 101.857L601.679 100.96L605.005 104.285ZM607.106 106.386L600.57 112.921L599.444 111.795L605.979 105.259L607.106 106.386ZM610.328 116L607.833 118.496C607.617 118.526 607.337 118.515 606.993 118.465C606.655 118.414 606.272 118.279 605.844 118.061C605.416 117.842 604.962 117.492 604.48 117.01C604.07 116.6 603.763 116.156 603.56 115.677C603.359 115.195 603.269 114.696 603.29 114.178C603.314 113.663 603.452 113.146 603.703 112.625C603.958 112.101 604.333 111.591 604.83 111.095L605.283 110.641C605.777 110.147 606.278 109.769 606.787 109.506C607.302 109.242 607.81 109.093 608.313 109.057C608.816 109.021 609.3 109.099 609.767 109.29C610.24 109.482 610.686 109.787 611.105 110.206C611.64 110.741 611.993 111.274 612.164 111.804C612.341 112.333 612.368 112.851 612.245 113.357C612.122 113.862 611.884 114.343 611.531 114.797L610.427 113.693C610.619 113.43 610.752 113.156 610.826 112.872C610.904 112.591 610.898 112.303 610.809 112.01C610.725 111.717 610.532 111.419 610.23 111.117C609.969 110.857 609.691 110.677 609.395 110.578C609.098 110.48 608.789 110.46 608.466 110.52C608.145 110.583 607.815 110.719 607.474 110.928C607.132 111.138 606.785 111.419 606.432 111.772L605.97 112.235C605.611 112.594 605.33 112.95 605.126 113.303C604.926 113.659 604.801 114.005 604.754 114.34C604.709 114.678 604.742 115.001 604.852 115.309C604.966 115.614 605.155 115.899 605.418 116.162C605.675 116.419 605.907 116.609 606.114 116.732C606.323 116.852 606.506 116.93 606.661 116.965C606.823 117.001 606.959 117.018 607.07 117.015L608.367 115.718L607.007 114.358L607.846 113.518L610.328 116ZM618.439 117.719L619.561 118.842L615.194 123.209C614.697 123.706 614.173 124.014 613.623 124.134C613.072 124.253 612.526 124.213 611.985 124.012C611.449 123.812 610.954 123.484 610.499 123.029C610.029 122.56 609.694 122.057 609.493 121.521C609.296 120.983 609.259 120.44 609.381 119.892C609.507 119.347 609.818 118.827 610.315 118.33L614.682 113.963L615.804 115.085L611.437 119.452C611.123 119.766 610.918 120.079 610.822 120.39C610.729 120.698 610.734 120.999 610.835 121.292C610.937 121.586 611.123 121.867 611.392 122.136C611.661 122.405 611.941 122.589 612.231 122.688C612.525 122.79 612.825 122.794 613.134 122.702C613.445 122.606 613.757 122.401 614.072 122.087L618.439 117.719ZM620.786 120.067L623.098 122.379C623.595 122.875 623.943 123.373 624.144 123.873C624.344 124.373 624.391 124.862 624.283 125.341C624.181 125.82 623.916 126.273 623.488 126.701C623.162 127.027 622.815 127.254 622.447 127.383C622.079 127.512 621.701 127.552 621.312 127.504C620.926 127.453 620.535 127.323 620.14 127.114L619.633 126.939L617.555 124.861L618.439 123.958L619.996 125.516C620.266 125.785 620.538 125.962 620.813 126.046C621.089 126.129 621.353 126.134 621.608 126.059C621.868 125.984 622.103 125.842 622.312 125.633C622.54 125.405 622.692 125.163 622.77 124.906C622.854 124.648 622.85 124.383 622.757 124.111C622.667 123.836 622.482 123.557 622.2 123.276L621.015 122.091L615.378 127.729L614.251 126.602L620.786 120.067ZM617.981 130.332L619.382 125.862L620.566 127.038L619.242 131.477L619.184 131.535L617.981 130.332ZM625.212 135.777L624.319 136.67L620.849 133.2L621.742 132.307L625.212 135.777ZM627.703 126.984L621.168 133.519L620.041 132.392L626.577 125.857L627.703 126.984ZM627.672 132.41L626.792 133.29L623.776 130.274L624.655 129.394L627.672 132.41ZM630.832 130.112L629.934 131.01L626.487 127.563L627.384 126.665L630.832 130.112Z" fill="white"/>
<path d="M80.6147 122.643L81.7369 121.521C82.1288 121.985 82.3907 122.486 82.5223 123.024C82.651 123.56 82.6271 124.108 82.4505 124.667C82.274 125.227 81.9224 125.77 81.3957 126.296C80.9918 126.7 80.5564 126.992 80.0896 127.172C79.6198 127.348 79.1365 127.419 78.6398 127.383C78.1401 127.344 77.6389 127.196 77.1362 126.938C76.6365 126.678 76.1517 126.313 75.6819 125.843L75.1388 125.3C74.669 124.83 74.3054 124.344 74.0481 123.841C73.7938 123.336 73.6486 122.831 73.6127 122.329C73.5738 121.823 73.6456 121.335 73.8282 120.865C74.0137 120.393 74.3114 119.951 74.7214 119.541C75.242 119.021 75.7777 118.677 76.3282 118.509C76.8788 118.341 77.4219 118.328 77.9576 118.469C78.4962 118.606 79.0064 118.871 79.4881 119.263L78.366 120.385C78.0548 120.134 77.7481 119.959 77.4459 119.86C77.1466 119.758 76.8474 119.752 76.5482 119.842C76.246 119.929 75.9377 120.129 75.6236 120.443C75.3662 120.701 75.1897 120.973 75.0939 121.26C74.9982 121.548 74.9787 121.848 75.0356 122.163C75.0924 122.477 75.2241 122.803 75.4305 123.141C75.637 123.473 75.9138 123.813 76.2609 124.16L76.813 124.712C77.1422 125.041 77.4698 125.312 77.796 125.524C78.1221 125.731 78.4408 125.87 78.752 125.942C79.0662 126.011 79.3699 126.003 79.6632 125.919C79.9564 125.836 80.2347 125.662 80.498 125.399C80.8182 125.079 81.0262 124.769 81.1219 124.47C81.2207 124.167 81.2237 123.868 81.1309 123.572C81.0381 123.27 80.8661 122.96 80.6147 122.643ZM78.3525 116.09L80.6641 113.778C81.1608 113.281 81.6591 112.933 82.1588 112.732C82.6585 112.532 83.1477 112.485 83.6265 112.593C84.1053 112.695 84.5586 112.96 84.9865 113.388C85.3127 113.714 85.5401 114.061 85.6688 114.429C85.7974 114.797 85.8378 115.175 85.7899 115.564C85.7391 115.951 85.6089 116.341 85.3994 116.736L85.2244 117.243L83.1462 119.321L82.244 118.437L83.8015 116.88C84.0709 116.61 84.2474 116.338 84.3312 116.063C84.415 115.787 84.4195 115.523 84.3447 115.268C84.2698 115.008 84.1277 114.773 83.9182 114.564C83.6908 114.336 83.4485 114.184 83.1911 114.106C82.9338 114.022 82.669 114.026 82.3967 114.119C82.1214 114.209 81.8431 114.395 81.5618 114.676L80.3768 115.861L86.0144 121.498L84.8878 122.625L78.3525 116.09ZM88.6177 118.895L84.1472 117.495L85.3231 116.31L89.7622 117.634L89.8206 117.692L88.6177 118.895ZM94.0622 111.664L94.9554 112.557L91.4858 116.027L90.5926 115.134L94.0622 111.664ZM85.2693 109.173L91.8045 115.708L90.6779 116.835L84.1427 110.3L85.2693 109.173ZM90.6958 109.204L91.5756 110.084L88.5593 113.1L87.6796 112.221L90.6958 109.204ZM88.3977 106.044L89.2954 106.942L85.8483 110.389L84.9506 109.492L88.3977 106.044ZM92.756 103.428L96.468 111.045L95.2875 112.225L91.212 103.23L91.9661 102.476L92.756 103.428ZM100.054 107.458L92.4329 103.751L91.4768 102.965L92.2354 102.207L101.239 106.273L100.054 107.458ZM97.5363 105.129L98.4295 106.022L94.8746 109.577L93.9814 108.684L97.5363 105.129ZM97.5587 96.8835L104.094 103.419L102.976 104.536L96.4411 98.0011L97.5587 96.8835ZM99.6099 94.8322L100.508 95.7299L95.3055 100.932L94.4078 100.034L99.6099 94.8322ZM110.391 95.335L111.284 96.2282L107.815 99.6978L106.922 98.8045L110.391 95.335ZM101.598 92.8439L108.134 99.3791L107.007 100.506L100.472 93.9705L101.598 92.8439ZM107.025 92.8753L107.905 93.755L104.888 96.7713L104.009 95.8915L107.025 92.8753ZM104.727 89.7154L105.624 90.6131L102.177 94.0602L101.28 93.1625L104.727 89.7154Z" fill="white"/>
<path d="M370.149 123.828L372.46 121.517C372.957 121.02 373.455 120.671 373.955 120.471C374.454 120.27 374.944 120.224 375.422 120.332C375.901 120.434 376.355 120.698 376.782 121.126C377.109 121.452 377.336 121.8 377.465 122.168C377.593 122.536 377.634 122.914 377.586 123.303C377.535 123.689 377.405 124.08 377.195 124.475L377.02 124.982L374.942 127.06L374.04 126.176L375.598 124.618C375.867 124.349 376.043 124.077 376.127 123.801C376.211 123.526 376.215 123.261 376.141 123.007C376.066 122.747 375.924 122.512 375.714 122.302C375.487 122.075 375.244 121.922 374.987 121.844C374.73 121.761 374.465 121.765 374.193 121.858C373.917 121.948 373.639 122.133 373.358 122.414L372.173 123.599L377.81 129.237L376.684 130.364L370.149 123.828ZM380.414 126.634L375.943 125.233L377.119 124.048L381.558 125.372L381.617 125.431L380.414 126.634ZM385.858 119.403L386.751 120.296L383.282 123.765L382.389 122.872L385.858 119.403ZM377.065 116.912L383.6 123.447L382.474 124.573L375.939 118.038L377.065 116.912ZM382.492 116.943L383.372 117.823L380.355 120.839L379.476 119.959L382.492 116.943ZM380.194 113.783L381.091 114.681L377.644 118.128L376.747 117.23L380.194 113.783ZM390.872 114.389L391.765 115.282L388.484 118.563L387.591 117.67L390.872 114.389ZM382.263 111.714L388.798 118.249L387.672 119.376L381.136 112.841L382.263 111.714ZM396.02 109.241L396.913 110.134L393.444 113.604L392.55 112.71L396.02 109.241ZM387.227 106.75L393.762 113.285L392.636 114.411L386.101 107.876L387.227 106.75ZM392.654 106.781L393.533 107.661L390.517 110.677L389.637 109.797L392.654 106.781ZM390.356 103.621L391.253 104.519L387.806 107.966L386.908 107.068L390.356 103.621ZM394.714 101.004L398.426 108.621L397.245 109.802L393.17 100.807L393.924 100.053L394.714 101.004ZM402.012 105.035L394.391 101.328L393.435 100.542L394.193 99.7836L403.197 103.85L402.012 105.035ZM399.494 102.706L400.387 103.599L396.832 107.154L395.939 106.26L399.494 102.706ZM405.684 97.9972C405.549 97.8625 405.408 97.7638 405.262 97.7009C405.118 97.6351 404.952 97.6097 404.764 97.6246C404.575 97.6396 404.348 97.6994 404.081 97.8042C403.815 97.9029 403.496 98.051 403.125 98.2485C402.718 98.464 402.325 98.645 401.945 98.7916C401.565 98.9323 401.2 99.022 400.85 99.0609C400.497 99.0968 400.164 99.0669 399.853 98.9712C399.539 98.8724 399.247 98.6884 398.978 98.4191C398.712 98.1528 398.525 97.855 398.417 97.5259C398.312 97.1937 398.284 96.8451 398.332 96.4801C398.38 96.109 398.502 95.738 398.7 95.3669C398.894 94.9929 399.163 94.6338 399.508 94.2897C399.992 93.8049 400.5 93.4773 401.029 93.3067C401.562 93.1332 402.074 93.1032 402.564 93.2169C403.058 93.3277 403.487 93.5655 403.852 93.9306L402.735 95.0482C402.519 94.8328 402.283 94.6892 402.026 94.6173C401.768 94.5395 401.499 94.5455 401.218 94.6353C400.939 94.7221 400.66 94.9061 400.378 95.1874C400.112 95.4537 399.931 95.7155 399.835 95.9729C399.74 96.2302 399.717 96.4711 399.768 96.6955C399.819 96.9199 399.931 97.1189 400.105 97.2925C400.227 97.4152 400.368 97.4989 400.526 97.5438C400.682 97.5857 400.862 97.5917 401.065 97.5618C401.266 97.5289 401.492 97.4615 401.743 97.3598C401.994 97.2581 402.274 97.1219 402.582 96.9513C403.052 96.697 403.487 96.501 403.888 96.3634C404.286 96.2227 404.657 96.1449 405.001 96.13C405.346 96.115 405.667 96.1674 405.967 96.2871C406.263 96.4038 406.543 96.5938 406.806 96.8571C407.081 97.1324 407.274 97.4361 407.385 97.7682C407.493 98.0974 407.521 98.443 407.47 98.8051C407.419 99.1612 407.292 99.5247 407.089 99.8958C406.885 100.261 406.608 100.618 406.258 100.969C405.944 101.283 405.592 101.551 405.203 101.772C404.817 101.99 404.415 102.139 403.996 102.216C403.574 102.291 403.161 102.273 402.757 102.162C402.35 102.049 401.973 101.818 401.626 101.471L402.753 100.345C402.965 100.557 403.182 100.702 403.404 100.78C403.628 100.855 403.854 100.874 404.081 100.838C404.306 100.799 404.527 100.716 404.746 100.587C404.967 100.455 405.178 100.289 405.379 100.089C405.642 99.8255 405.824 99.5681 405.926 99.3168C406.031 99.0624 406.061 98.823 406.016 98.5986C405.971 98.3742 405.86 98.1737 405.684 97.9972ZM412.879 92.3821L413.772 93.2753L410.302 96.7449L409.409 95.8517L412.879 92.3821ZM404.086 89.891L410.621 96.4262L409.494 97.5528L402.959 91.0176L404.086 89.891ZM409.512 89.9224L410.392 90.8021L407.376 93.8184L406.496 92.9387L409.512 89.9224ZM407.214 86.7625L408.112 87.6602L404.665 91.1074L403.767 90.2097L407.214 86.7625Z" fill="white"/>
<path d="M175.98 225H170.514L170.549 221.502H175.98C177.562 221.502 178.887 221.156 179.953 220.465C181.031 219.773 181.84 218.783 182.379 217.494C182.93 216.205 183.205 214.67 183.205 212.889V211.5C183.205 210.117 183.047 208.893 182.73 207.826C182.426 206.76 181.969 205.863 181.359 205.137C180.762 204.41 180.023 203.859 179.145 203.484C178.277 203.109 177.275 202.922 176.139 202.922H170.408V199.406H176.139C177.838 199.406 179.391 199.693 180.797 200.268C182.203 200.83 183.416 201.645 184.436 202.711C185.467 203.777 186.258 205.055 186.809 206.543C187.359 208.031 187.635 209.695 187.635 211.535V212.889C187.635 214.729 187.359 216.393 186.809 217.881C186.258 219.369 185.467 220.646 184.436 221.713C183.404 222.768 182.174 223.582 180.744 224.156C179.326 224.719 177.738 225 175.98 225ZM172.957 199.406V225H168.545V199.406H172.957ZM208.816 221.502V225H195.229V221.502H208.816ZM196.477 199.406V225H192.064V199.406H196.477ZM207.041 210.094V213.539H195.229V210.094H207.041ZM208.729 199.406V202.922H195.229V199.406H208.729ZM221.191 220.324L227.924 199.406H232.793L223.617 225H220.33L221.191 220.324ZM214.969 199.406L221.648 220.324L222.562 225H219.258L210.117 199.406H214.969Z" fill="white"/>
<path d="M488.705 211.5V212.906C488.705 214.84 488.453 216.574 487.949 218.109C487.445 219.645 486.725 220.951 485.787 222.029C484.861 223.107 483.748 223.934 482.447 224.508C481.146 225.07 479.705 225.352 478.123 225.352C476.553 225.352 475.117 225.07 473.816 224.508C472.527 223.934 471.408 223.107 470.459 222.029C469.51 220.951 468.771 219.645 468.244 218.109C467.729 216.574 467.471 214.84 467.471 212.906V211.5C467.471 209.566 467.729 207.838 468.244 206.314C468.76 204.779 469.486 203.473 470.424 202.395C471.373 201.305 472.492 200.479 473.781 199.916C475.082 199.342 476.518 199.055 478.088 199.055C479.67 199.055 481.111 199.342 482.412 199.916C483.713 200.479 484.832 201.305 485.77 202.395C486.707 203.473 487.428 204.779 487.932 206.314C488.447 207.838 488.705 209.566 488.705 211.5ZM484.293 212.906V211.465C484.293 210.035 484.152 208.775 483.871 207.686C483.602 206.584 483.197 205.664 482.658 204.926C482.131 204.176 481.48 203.613 480.707 203.238C479.934 202.852 479.061 202.658 478.088 202.658C477.115 202.658 476.248 202.852 475.486 203.238C474.725 203.613 474.074 204.176 473.535 204.926C473.008 205.664 472.604 206.584 472.322 207.686C472.041 208.775 471.9 210.035 471.9 211.465V212.906C471.9 214.336 472.041 215.602 472.322 216.703C472.604 217.805 473.014 218.736 473.553 219.498C474.104 220.248 474.76 220.816 475.521 221.203C476.283 221.578 477.15 221.766 478.123 221.766C479.107 221.766 479.98 221.578 480.742 221.203C481.504 220.816 482.148 220.248 482.676 219.498C483.203 218.736 483.602 217.805 483.871 216.703C484.152 215.602 484.293 214.336 484.293 212.906ZM502.838 215.455H496.176V211.957H502.838C503.998 211.957 504.936 211.77 505.65 211.395C506.365 211.02 506.887 210.504 507.215 209.848C507.555 209.18 507.725 208.418 507.725 207.562C507.725 206.754 507.555 205.998 507.215 205.295C506.887 204.58 506.365 204.006 505.65 203.572C504.936 203.139 503.998 202.922 502.838 202.922H497.529V225H493.117V199.406H502.838C504.818 199.406 506.5 199.758 507.883 200.461C509.277 201.152 510.338 202.113 511.064 203.344C511.791 204.562 512.154 205.957 512.154 207.527C512.154 209.18 511.791 210.598 511.064 211.781C510.338 212.965 509.277 213.873 507.883 214.506C506.5 215.139 504.818 215.455 502.838 215.455ZM529.574 218.408C529.574 217.881 529.492 217.412 529.328 217.002C529.176 216.592 528.9 216.217 528.502 215.877C528.104 215.537 527.541 215.209 526.814 214.893C526.1 214.564 525.186 214.23 524.072 213.891C522.854 213.516 521.729 213.1 520.697 212.643C519.678 212.174 518.787 211.635 518.025 211.025C517.264 210.404 516.672 209.695 516.25 208.898C515.828 208.09 515.617 207.158 515.617 206.104C515.617 205.061 515.834 204.111 516.268 203.256C516.713 202.4 517.34 201.662 518.148 201.041C518.969 200.408 519.936 199.922 521.049 199.582C522.162 199.23 523.393 199.055 524.74 199.055C526.639 199.055 528.273 199.406 529.645 200.109C531.027 200.812 532.088 201.756 532.826 202.939C533.576 204.123 533.951 205.43 533.951 206.859H529.574C529.574 206.016 529.393 205.271 529.029 204.627C528.678 203.971 528.139 203.455 527.412 203.08C526.697 202.705 525.789 202.518 524.688 202.518C523.645 202.518 522.777 202.676 522.086 202.992C521.395 203.309 520.879 203.736 520.539 204.275C520.199 204.814 520.029 205.424 520.029 206.104C520.029 206.584 520.141 207.023 520.363 207.422C520.586 207.809 520.926 208.172 521.383 208.512C521.84 208.84 522.414 209.15 523.105 209.443C523.797 209.736 524.611 210.018 525.549 210.287C526.967 210.709 528.203 211.178 529.258 211.693C530.312 212.197 531.191 212.771 531.895 213.416C532.598 214.061 533.125 214.793 533.477 215.613C533.828 216.422 534.004 217.342 534.004 218.373C534.004 219.451 533.787 220.424 533.354 221.291C532.92 222.146 532.299 222.879 531.49 223.488C530.693 224.086 529.732 224.549 528.607 224.877C527.494 225.193 526.252 225.352 524.881 225.352C523.65 225.352 522.438 225.188 521.242 224.859C520.059 224.531 518.98 224.033 518.008 223.365C517.035 222.686 516.262 221.842 515.688 220.834C515.113 219.814 514.826 218.625 514.826 217.266H519.238C519.238 218.098 519.379 218.807 519.66 219.393C519.953 219.979 520.357 220.459 520.873 220.834C521.389 221.197 521.986 221.467 522.666 221.643C523.357 221.818 524.096 221.906 524.881 221.906C525.912 221.906 526.773 221.76 527.465 221.467C528.168 221.174 528.695 220.764 529.047 220.236C529.398 219.709 529.574 219.1 529.574 218.408Z" fill="white"/>
</svg>
