<svg width="136" height="142" viewBox="0 0 136 142" fill="none" xmlns="http://www.w3.org/2000/svg">
<circle cx="31" cy="31" r="28" stroke="#44AAF4" stroke-width="6"/>
<path d="M25.1246 18.815L45.3832 30.5114C46.0499 30.8963 46.0499 31.8585 45.3832 32.2434L25.1246 43.9398C24.4579 44.3247 23.6246 43.8436 23.6246 43.0738L23.6246 19.681C23.6246 18.9112 24.4579 18.4301 25.1246 18.815Z" stroke="#44AAF4" stroke-width="6"/>
<circle cx="116" cy="74" r="17" stroke="#44AAF4" stroke-width="6"/>
<circle cx="116" cy="122" r="17" stroke="#8DCDFB" stroke-width="6"/>
<circle cx="68" cy="122" r="17" stroke="#44AAF4" stroke-width="6"/>
<path d="M112.009 79.0523L108.327 75.7795C107.577 75.1128 107.463 73.9825 108.065 73.1797C108.77 72.2404 110.143 72.1428 110.973 72.9731L111.756 73.7564C112.885 74.885 114.715 74.885 115.844 73.7563L121.379 68.2214C122.053 67.5468 123.147 67.5468 123.821 68.2214C124.479 68.879 124.498 69.9392 123.864 70.6199L116.198 78.8544C115.087 80.0473 113.227 80.1352 112.009 79.0523Z" fill="#44AAF4"/>
<circle cx="68" cy="74" r="17" stroke="#44AAF4" stroke-width="6"/>
<path d="M64.0089 79.0523L60.3269 75.7795C59.5769 75.1128 59.4631 73.9825 60.0652 73.1797C60.7697 72.2404 62.1428 72.1428 62.9731 72.9731L63.7564 73.7564C64.885 74.885 66.715 74.885 67.8437 73.7563L73.3786 68.2214C74.0532 67.5468 75.1468 67.5468 75.8214 68.2214C76.479 68.879 76.498 69.9392 75.8642 70.6199L68.1977 78.8544C67.087 80.0473 65.2271 80.1352 64.0089 79.0523Z" fill="#44AAF4"/>
<path d="M28 113.5V59.8689C28 58.2844 29.2844 57 30.8689 57C32.4533 57 33.7377 58.2844 33.7377 59.8689V110.869C33.7377 116.188 38.0497 120.5 43.3689 120.5H50.25C51.7688 120.5 53 121.731 53 123.25C53 124.769 51.7688 126 50.25 126H40.5C33.5964 126 28 120.404 28 113.5Z" fill="#44AAF4"/>
<path d="M28 67V58.9836C28 57.3358 29.3358 56 30.9836 56C32.6314 56 33.9672 57.3358 33.9672 58.9836V64.3696C33.9672 68.9919 37.7144 72.7391 42.3368 72.7391H51.3696C52.8223 72.7391 54 73.9168 54 75.3696C54 76.8223 52.8223 78 51.3696 78H39C32.9249 78 28 73.0751 28 67Z" fill="#44AAF4"/>
<path d="M97 78H86C84.3431 78 83 76.6569 83 75C83 73.3431 84.3432 72 86 72L86.9016 72H97C98.6569 72 100 73.3431 100 75C100 76.6569 98.6569 78 97 78Z" fill="#44AAF4"/>
<path d="M99 119.5V125.5C99 125.776 98.7761 126 98.5 126H95.5C93.567 126 92 124.433 92 122.5C92 120.567 93.567 119 95.5 119L98.5 119C98.7761 119 99 119.224 99 119.5Z" fill="#8DCDFB"/>
<path d="M73.5 119C75.433 119 77 120.567 77 122.5C77 124.433 75.433 126 73.5 126C71.567 126 70 124.433 70 122.5C70 120.567 71.567 119 73.5 119Z" fill="#8DCDFB"/>
<path d="M63.5 119C65.433 119 67 120.567 67 122.5C67 124.433 65.433 126 63.5 126C61.567 126 60 124.433 60 122.5C60 120.567 61.567 119 63.5 119Z" fill="#8DCDFB"/>
</svg>
