<svg width="71" height="66" viewBox="0 0 71 66" fill="none" xmlns="http://www.w3.org/2000/svg">
<path d="M4 33L14 0L22 33H4Z" fill="#E1320B"/>
<path d="M49 33L35.5 66L22 33L49 33Z" fill="#E1320B"/>
<path d="M22 33L35.5 66L4 33L22 33Z" fill="#F16601"/>
<path d="M67 33L57 0L49 33H67Z" fill="#E1320B"/>
<path d="M49 33L35.5 66L67 33L49 33Z" fill="#F16601"/>
<path d="M4 33L35.5 66L0.5 44.5L4 33Z" fill="#EFA30E"/>
<path d="M67 33L35.5 66L70.5 44.5L67 33Z" fill="#EFA30E"/>
<path d="M20 33.376C20 33.376 21.1307 22.8336 26.6667 19.4782C32.1185 16.1739 37.8815 16.1739 43.3333 19.4782C48.8693 22.8336 50 33.376 50 33.376V35.4412C50 35.4412 40.8619 36 35 36C29.1381 36 20 35.4412 20 35.4412V33.376Z" fill="#DCC707"/>
<path d="M35.8568 25.5331C35.929 25.298 36.1613 25.1503 36.4048 25.1847L36.4639 25.1931C36.7683 25.2361 36.9621 25.541 36.8719 25.8349L35.1432 31.4669C35.071 31.702 34.8387 31.8497 34.5952 31.8153L34.5361 31.8069C34.2318 31.7639 34.0379 31.459 34.1281 31.1651L35.8568 25.5331ZM39.0161 28.9109C39.3038 28.7123 39.304 28.2873 39.0166 28.0883L37.8546 27.2839C37.7369 27.2024 37.6667 27.0683 37.6667 26.9252V26.9252C37.6667 26.5732 38.0619 26.3661 38.3513 26.5665L40.5499 28.0886C40.8372 28.2875 40.8371 28.7123 40.5496 28.911L38.3513 30.4305C38.0618 30.6306 37.6667 30.4234 37.6667 30.0715V30.0715C37.6667 29.9281 37.7371 29.7939 37.8551 29.7124L39.0161 28.9109ZM30.4504 28.911C30.1629 28.7123 30.1628 28.2875 30.4501 28.0886L32.6487 26.5665C32.9381 26.3661 33.3333 26.5732 33.3333 26.9252V26.9252C33.3333 27.0683 33.2631 27.2024 33.1454 27.2839L31.9834 28.0883C31.696 28.2873 31.6962 28.7123 31.9839 28.9109L33.1449 29.7124C33.2629 29.7939 33.3333 29.9281 33.3333 30.0715V30.0715C33.3333 30.4234 32.9382 30.6306 32.6487 30.4305L30.4504 28.911Z" fill="black"/>
</svg>
