<svg width="186" height="202" viewBox="0 0 186 202" fill="none" xmlns="http://www.w3.org/2000/svg">
<path d="M110.167 124.5C120.129 125.075 127.167 123 127.167 123C127.167 123 118.698 127.951 112.667 128.5C96.0146 130.015 81.1666 116 81.1666 99.5C81.1666 83 90.3865 65.1202 112.667 61C128.336 58.1023 147.322 66.1203 161.667 81C176.952 96.8552 173.5 132.5 173.5 132.5C173.5 132.5 179.073 136.334 181 140C183.201 144.188 182.667 148.095 182.667 152C182.667 152 177.22 154.411 173.5 155C169.836 155.58 164 155 164 155C164 155 156.73 162.532 150.167 165.5C143.69 168.428 132.667 171.5 132.667 171.5C132.667 171.5 134.446 185.003 132.667 190C130.778 195.306 124.667 202 124.667 202C124.667 202 114.469 197.367 110.167 192C107.652 188.863 106.167 179 106.167 179C106.167 179 89.9834 179.133 81.1666 175.5C72.7046 172.013 61.6666 164 61.6666 164C61.6666 164 53.7412 170.014 48.1667 171.5C42.4783 173.017 33.1666 173 33.1666 173C33.1666 173 33.4179 163.452 34.6667 157.5C35.8459 151.88 42.1667 143.5 42.1667 143.5C42.1667 143.5 35.8192 137.376 33.1666 132.5C30.2439 127.128 28.6667 117.5 28.6667 117.5C28.6667 117.5 17.4526 115.511 11.6667 111.5C5.81782 107.445 0 97.5 0 97.5C0 97.5 6.86451 89.246 12.5 85.5C19.1434 81.0841 31.5 78 31.5 78C31.5 78 33.1046 70.139 35.5 62.5C37.3337 56.6525 41.5 49.5 41.5 49.5C41.5 49.5 36.7501 46.376 34.6667 43.5C30.5922 37.8756 31.5 26 31.5 26C31.5 26 42.357 24.9634 48.1667 28C52.2913 30.1559 57 36 57 36C57 36 65.7948 27.6936 72.5 24C78.8857 20.4825 83.5 19 83.5 19C83.5 19 85.3841 11.1696 88.6666 7.50003C91.5556 4.2705 96 0 96 0C96 0 107.25 3.16933 110.5 7.50003C112.613 10.3154 113.5 16 113.5 16C113.5 16 121.86 16.7033 128.5 18.5C135.754 20.4628 142 22.5 142 22.5C142 22.5 145.048 19.52 147.5 18.5C150.228 17.3652 155 17.5 155 17.5C155 17.5 158 22.0195 158 25C158 27.5 157 31 157 31C157 31 169.89 40.9608 175.5 49.5C184.161 62.6823 186 88.5 186 88.5C186 88.5 170.432 57.9868 152.5 48C127.588 34.1264 99.834 33.4891 79.5 49.5C59.3655 65.3539 50.8358 86.8948 58 111.5C64.8704 135.096 81.6023 151.245 106.167 152C128.58 152.689 149.673 142.898 154.5 121C159.107 100.1 148.362 76.4653 127.167 73.5C109.199 70.9864 87.6657 81.3851 88.6666 99.5C89.3771 112.357 97.3111 123.758 110.167 124.5Z" fill="url(#paint0_linear_16_44)"/>
<defs>
<linearGradient id="paint0_linear_16_44" x1="96.8333" y1="-30" x2="96.8333" y2="202" gradientUnits="userSpaceOnUse">
<stop stop-color="#DF5000"/>
<stop offset="1" stop-color="#E1C45A"/>
</linearGradient>
</defs>
</svg>
