<svg width="25" height="25" viewBox="0 0 25 25" fill="none" xmlns="http://www.w3.org/2000/svg">
<path d="M14.4022 13.5385H14.1722C13.9922 13.6485 13.9122 13.8585 13.9922 14.0385L14.8522 16.1485C15.6822 15.6185 16.3122 14.8285 16.6422 13.8985L14.4122 13.5385H14.4022ZM10.9522 13.8285C10.8922 13.6585 10.7422 13.5385 10.5722 13.5385H10.4922L8.27221 13.9085C8.60221 14.8285 9.23221 15.6085 10.0622 16.1385L10.9122 14.0685V14.0385C10.9522 13.9885 10.9522 13.8985 10.9522 13.8285ZM12.7822 14.6385C12.6822 14.4585 12.4522 14.3885 12.2722 14.4885C12.2022 14.5385 12.1522 14.5685 12.1222 14.6385H12.1122L11.0222 16.6085C11.8022 16.8685 12.6422 16.9185 13.4522 16.7285C13.5922 16.6985 13.7422 16.6585 13.8822 16.6085L12.7922 14.6385H12.7822ZM16.2322 10.0685L14.5522 11.5385L14.5622 11.5685C14.4022 11.7085 14.3822 11.9485 14.5222 12.0985C14.5722 12.1585 14.6322 12.1985 14.7022 12.2185L14.7122 12.2285L16.8822 12.8485C16.9522 11.8785 16.7422 10.8985 16.2322 10.0685ZM13.1222 10.2285C13.1322 10.4385 13.3022 10.5985 13.5122 10.5885C13.5922 10.5885 13.6622 10.5685 13.7222 10.5385H13.7322L15.5622 9.22852C14.8622 8.53852 13.9522 8.10852 12.9922 7.98852L13.1222 10.2285ZM11.1822 10.5385C11.3522 10.6485 11.5822 10.6185 11.7022 10.4485C11.7522 10.3885 11.7722 10.3185 11.7822 10.2385H11.7922L11.9122 7.98852C11.7622 8.00852 11.6122 8.03852 11.4522 8.06852C10.6522 8.24852 9.91221 8.64852 9.33221 9.22852L11.1722 10.5385H11.1822ZM10.1922 12.2285C10.3922 12.1785 10.5122 11.9685 10.4522 11.7685C10.4522 11.6885 10.4022 11.6285 10.3422 11.5785V11.5685L8.66221 10.0385C8.14221 10.8985 7.92221 11.8785 8.03221 12.8585L10.1922 12.2385V12.2285ZM11.8322 12.8885L12.4522 13.1885L13.0722 12.8885L13.2222 12.2185L12.7922 11.6885H12.1022L11.6722 12.2185L11.8322 12.8885ZM22.7222 14.2085L20.9522 6.53852C20.8622 6.11852 20.5822 5.77852 20.2122 5.59852L13.0422 2.16852C12.6722 1.99852 12.2322 1.99852 11.8522 2.16852L4.69221 5.59852C4.32221 5.77852 4.04221 6.11852 3.95221 6.53852L2.18221 14.2085C2.13221 14.4085 2.13221 14.6085 2.18221 14.7985C2.19221 14.8585 2.21221 14.9185 2.23221 14.9785C2.26221 15.0685 2.31221 15.1685 2.36221 15.2485C2.39221 15.2885 2.41221 15.3285 2.45221 15.3585L7.40221 21.5385C7.42221 21.5385 7.45221 21.5785 7.45221 21.5985C7.55221 21.6885 7.64221 21.7585 7.73221 21.8185C7.85221 21.8985 7.99221 21.9585 8.13221 21.9885C8.24221 22.0385 8.36221 22.0385 8.45221 22.0385H16.5722C16.6422 22.0385 16.7122 22.0085 16.7722 21.9885C16.8222 21.9785 16.8722 21.9585 16.9122 21.9485C16.9522 21.9285 16.9822 21.9185 17.0222 21.8985C17.0722 21.8785 17.1222 21.8485 17.1722 21.8185C17.2922 21.7385 17.4022 21.6385 17.5022 21.5385L17.6522 21.3385L22.4522 15.3585C22.5522 15.2385 22.6222 15.1085 22.6722 14.9785C22.6922 14.9185 22.7122 14.8585 22.7222 14.7985C22.7722 14.6085 22.7722 14.3985 22.7222 14.2085ZM15.2922 17.1985C15.3122 17.2585 15.3322 17.3185 15.3622 17.3685C15.3222 17.4485 15.3022 17.5385 15.3322 17.6285C15.4522 17.8685 15.5622 18.0885 15.7122 18.3085C15.7922 18.4185 15.8722 18.5385 15.9522 18.6485C15.9522 18.6785 15.9822 18.7285 15.9922 18.7685C16.1122 18.9685 16.0522 19.2285 15.8422 19.3585C15.6322 19.4885 15.3722 19.4085 15.2522 19.2085C15.2422 19.1785 15.2322 19.1585 15.2222 19.1285C15.2022 19.0985 15.1822 19.0385 15.1622 19.0385C15.1122 18.8885 15.0722 18.7585 15.0422 18.6285C14.9522 18.3785 14.8722 18.1385 14.7422 17.9085C14.6922 17.8385 14.6122 17.7885 14.5322 17.7685L14.4522 17.6085C13.1622 18.0885 11.7522 18.0885 10.4822 17.5985L10.3822 17.7785C10.3122 17.7885 10.2422 17.8185 10.1922 17.8685C10.0522 18.1085 9.95221 18.3585 9.86221 18.6385C9.83221 18.7685 9.79221 18.8985 9.74221 19.0385C9.72221 19.0385 9.70221 19.1085 9.68221 19.1385C9.60221 19.3585 9.36221 19.4785 9.13221 19.3985C8.91221 19.3185 8.79221 19.0785 8.87221 18.8485C8.88221 18.8185 8.90221 18.7985 8.91221 18.7685C8.95221 18.7385 8.95221 18.6885 8.95221 18.6585C9.04221 18.5385 9.11221 18.4285 9.19221 18.3085C9.35221 18.0985 9.48221 17.8585 9.58221 17.6185C9.59221 17.5385 9.58221 17.4485 9.55221 17.3685L9.62221 17.1885C8.45221 16.4885 7.57221 15.3985 7.15221 14.0985L6.95221 14.1285C6.89221 14.0785 6.80221 14.0385 6.72221 14.0385C6.45221 14.0885 6.21221 14.1685 5.95221 14.2585C5.84221 14.3185 5.71221 14.3685 5.58221 14.4085C5.55221 14.4185 5.51221 14.4285 5.45221 14.4385C5.23221 14.5085 4.99221 14.3885 4.91221 14.1685C4.84221 13.9385 4.95221 13.6985 5.19221 13.6185C5.21221 13.6185 5.24221 13.6085 5.27221 13.6085V13.5985H5.28221L5.39221 13.5785C5.53221 13.5385 5.67221 13.5385 5.80221 13.5385C6.06221 13.5385 6.32221 13.4785 6.57221 13.4185C6.65221 13.3685 6.71221 13.3085 6.76221 13.2285L6.95221 13.1785C6.74221 11.8185 7.05221 10.4485 7.81221 9.30852L7.67221 9.18852C7.67221 9.09852 7.64221 9.00852 7.59221 8.93852C7.39221 8.76852 7.18221 8.61852 6.95221 8.48852C6.83221 8.42852 6.71221 8.35852 6.59221 8.27852C6.57221 8.25852 6.53221 8.22852 6.51221 8.20852L6.50221 8.19852C6.30221 8.03852 6.25221 7.77852 6.39221 7.56852C6.48221 7.46852 6.60221 7.41852 6.74221 7.41852C6.85221 7.42852 6.95221 7.46852 7.04221 7.53852L7.13221 7.60852C7.23221 7.69852 7.32221 7.80852 7.41221 7.90852C7.59221 8.09852 7.78221 8.27852 7.99221 8.42852C8.07221 8.46852 8.16221 8.47852 8.25221 8.45852L8.40221 8.56852C9.15221 7.76852 10.1322 7.20852 11.2022 6.96852C11.4522 6.90852 11.7222 6.86852 11.9822 6.84852L11.9922 6.66852C12.0622 6.60852 12.1022 6.53852 12.1322 6.43852C12.1422 6.17852 12.1222 5.91852 12.0822 5.66852C12.0522 5.53852 12.0322 5.39852 12.0222 5.25852V5.13852C12.0022 4.89852 12.1722 4.68852 12.4122 4.65852C12.6522 4.62852 12.8522 4.80852 12.8822 5.03852V5.25852C12.8722 5.39852 12.8522 5.53852 12.8222 5.66852C12.7822 5.91852 12.7622 6.17852 12.7722 6.43852C12.7922 6.53852 12.8422 6.60852 12.9122 6.65852L12.9222 6.84852C14.2822 6.96852 15.5422 7.57852 16.4822 8.56852L16.6422 8.44852C16.7322 8.46852 16.8222 8.45852 16.9022 8.41852C17.1122 8.26852 17.3122 8.08852 17.4822 7.89852C17.5722 7.79852 17.6622 7.69852 17.7622 7.59852C17.7922 7.57852 17.8322 7.53852 17.8622 7.53852C18.0322 7.35852 18.3022 7.35852 18.4522 7.53852C18.6422 7.69852 18.6322 7.96852 18.4522 8.13852C18.4522 8.15852 18.4222 8.17852 18.3922 8.19852C18.3722 8.21852 18.3322 8.24852 18.3022 8.26852C18.1922 8.34852 18.0722 8.41852 17.9522 8.47852C17.7222 8.60852 17.5022 8.75852 17.3122 8.92852C17.2522 8.99852 17.2222 9.07852 17.2322 9.16852L17.0722 9.30852C17.8422 10.4385 18.1522 11.8185 17.9522 13.1685L18.1422 13.2185C18.1822 13.2985 18.2522 13.3585 18.3322 13.3985C18.5822 13.4685 18.8422 13.5085 19.1022 13.5385H19.5122C19.5422 13.5685 19.5922 13.5785 19.6322 13.5885C19.8722 13.6185 20.0322 13.8385 20.0022 14.0785C19.9522 14.3085 19.7622 14.4785 19.5222 14.4485C19.4922 14.4385 19.4522 14.4385 19.4522 14.4285V14.4185C19.3922 14.4185 19.3522 14.4085 19.3122 14.3985C19.1822 14.3585 19.0622 14.3085 18.9522 14.2485C18.6922 14.1485 18.4522 14.0785 18.1822 14.0385C18.0922 14.0385 18.0122 14.0385 17.9522 14.1185C17.8822 14.1085 17.8222 14.0985 17.7622 14.0885C17.3522 15.3985 16.4522 16.4985 15.2922 17.1985Z" fill="#4476F4"/>
</svg>
