<svg width="105" height="121" viewBox="0 0 105 121" fill="none" xmlns="http://www.w3.org/2000/svg">
<path d="M84 38L102 45V62L84 55V38Z" fill="#38AEC8"/>
<path d="M102 45L105 42.9999V59.9998L102 61.9998V45Z" fill="#38AEC8"/>
<path d="M87 36L105 43L102 45L84 38L87 36Z" fill="#38AEC8"/>
<path d="M84 53L102 60V77L84 70V53Z" fill="#38AEC8"/>
<path d="M102 60L105 57.9999V74.9998L102 76.9998V60Z" fill="#38AEC8"/>
<path d="M87 51L105 58L102 60L84 53L87 51Z" fill="#38AEC8"/>
<path d="M84 66L102 73V90L84 83V66Z" fill="#38AEC8"/>
<path d="M102 73L105 70.9999V87.9998L102 89.9998V73Z" fill="#38AEC8"/>
<path d="M87 64L105 71L102 73L84 66L87 64Z" fill="#38AEC8"/>
<path d="M36 2L105 29V46L36 19V2Z" fill="#38AEC8"/>
<path d="M102 28L105 25.9999V42.9998L102 44.9998V28Z" fill="#38AEC8"/>
<path d="M39 0L105 26L102 28L36 2L39 0Z" fill="#38AEC8"/>
<path d="M10 24L69 47L66 49L7 26L10 24Z" fill="#38AEC8"/>
<path d="M16 20L75 43L72 45L13 22L16 20Z" fill="#38AEC8"/>
<path d="M22 16L81 39L78 41L19 18L22 16Z" fill="#38AEC8"/>
<path d="M66 49L69 47V113L66 115V49Z" fill="#38AEC8"/>
<path d="M72 45L75 43V109L72 111V45Z" fill="#38AEC8"/>
<path d="M78 41L81 39V105L78 107V41Z" fill="#38AEC8"/>
<path d="M0 31L18 38V55L0 48V31Z" fill="#38AEC8"/>
<path d="M18 38L21 35.9999V52.9998L18 54.9998V38Z" fill="#38AEC8"/>
<path d="M3 29L21 36L18 38L0 31L3 29Z" fill="#38AEC8"/>
<path d="M0 56L18 63V80L0 73V56Z" fill="#38AEC8"/>
<path d="M18 63L21 60.9999V77.9998L18 79.9998V63Z" fill="#38AEC8"/>
<path d="M3 54L21 61L18 63L0 56L3 54Z" fill="#38AEC8"/>
<path d="M0 81L18 88V105L0 98V81Z" fill="#38AEC8"/>
<path d="M18 88L21 85.9999V103L18 105V88Z" fill="#38AEC8"/>
<path d="M3 79L21 86L18 88L0 81L3 79Z" fill="#38AEC8"/>
<path d="M23 40L41 47V64L23 57V40Z" fill="#38AEC8"/>
<path d="M41 47L44 44.9999V61.9998L41 63.9998V47Z" fill="#38AEC8"/>
<path d="M26 38L44 45L41 47L23 40L26 38Z" fill="#38AEC8"/>
<path d="M23 65L41 72V89L23 82V65Z" fill="#38AEC8"/>
<path d="M41 72L44 69.9999V86.9998L41 88.9998V72Z" fill="#38AEC8"/>
<path d="M26 63L44 70L41 72L23 65L26 63Z" fill="#38AEC8"/>
<path d="M23 90L41 97V114L23 107V90Z" fill="#38AEC8"/>
<path d="M41 97L44 94.9999V112L41 114V97Z" fill="#38AEC8"/>
<path d="M26 88L44 95L41 97L23 90L26 88Z" fill="#38AEC8"/>
<path d="M41 47L59 54V71L41 64V47Z" fill="#38AEC8"/>
<path d="M59 54L62 51.9999V68.9998L59 70.9998V54Z" fill="#38AEC8"/>
<path d="M44 45L62 52L59 54L41 47L44 45Z" fill="#38AEC8"/>
<path d="M41 72L59 79V96L41 89V72Z" fill="#38AEC8"/>
<path d="M59 79L62 76.9999V93.9998L59 95.9998V79Z" fill="#38AEC8"/>
<path d="M44 70L62 77L59 79L41 72L44 70Z" fill="#38AEC8"/>
<path d="M41 97L59 104V121L41 114V97Z" fill="#38AEC8"/>
<path d="M59 104L62 102V119L59 121V104Z" fill="#38AEC8"/>
<path d="M44 95L62 102L59 104L41 97L44 95Z" fill="#38AEC8"/>
</svg>
