<svg width="444" height="413" viewBox="0 0 444 413" fill="none" xmlns="http://www.w3.org/2000/svg">
<rect y="314" width="221" height="97" rx="13" fill="#5AD221"/>
<path d="M31.085 363.191V364.01H42.915V363.191H31.085ZM31.397 356.652V357.51H42.59V356.652H31.397ZM35.596 361.826C34.79 363.1 33.581 364.842 32.749 365.895L33.672 366.207C34.504 365.141 35.7 363.438 36.545 362.086L35.596 361.826ZM39.496 363.477C38.456 366.012 35.908 366.935 31.267 367.182C31.423 367.403 31.579 367.754 31.644 368.04C36.519 367.676 39.288 366.61 40.432 363.75L39.496 363.477ZM33.451 365.765C36.753 366.376 39.938 367.26 41.927 368.079L42.512 367.286C40.497 366.493 37.156 365.622 33.945 365.05L33.451 365.765ZM34.946 356.977L34.946 361.514H35.869L35.869 356.977H34.946ZM37.975 356.977L37.975 361.514H38.898V356.977H37.975ZM32.957 359.421H41.069V361.189H32.957V359.421ZM32.047 358.628V361.995H42.044V358.628H32.047ZM51.352 356.249L51.352 368.04H52.327L52.327 356.249H51.352ZM49.103 356.743C48.804 358.433 48.258 360.11 47.504 361.202C47.751 361.306 48.154 361.54 48.349 361.683C49.09 360.526 49.688 358.745 50.039 356.925L49.103 356.743ZM49.233 358.745L48.986 359.707H55.304V358.745H49.233ZM47.608 362.567V363.529H55.876V362.567H47.608ZM46.971 356.132C46.282 358.108 45.125 360.058 43.903 361.319C44.085 361.553 44.371 362.06 44.462 362.281C45.814 360.812 47.075 358.615 47.894 356.418L46.971 356.132ZM45.658 359.486L45.658 368.027H46.594L46.594 358.576L46.581 358.563L45.658 359.486ZM59.243 360.058V360.994H66.822V360.058H59.243ZM62.987 363.165V364.088H67.368V363.165H62.987ZM62.467 360.539L62.467 366.987L63.481 367.117L63.481 360.539H62.467ZM59.386 362.112C59.1 364.465 58.398 366.324 56.942 367.455C57.176 367.598 57.592 367.936 57.748 368.105C59.217 366.831 60.036 364.842 60.4 362.216L59.386 362.112ZM59.997 363.789L59.204 364.088C60.322 367.26 62.441 367.871 65.535 367.871H68.59C68.629 367.585 68.798 367.117 68.954 366.883C68.317 366.896 66.068 366.896 65.587 366.896C62.948 366.896 60.92 366.441 59.997 363.789ZM62.454 356.093V358.199H63.481V356.093H62.454ZM57.566 357.575V360.409L58.528 360.409V358.511H67.433V360.409H68.434V357.575H57.566ZM70.774 357.458V358.225H81.239V357.458H70.774ZM71.476 359.031V359.759H80.537V359.031H71.476ZM70.215 360.591V361.371H81.785V360.591H70.215ZM70.202 363.49V364.257H81.824V363.49H70.202ZM75.48 357.835V360.981H76.481V357.835H75.48ZM78.288 356.054C78.106 356.47 77.781 357.081 77.508 357.471L78.327 357.731C78.613 357.38 78.99 356.847 79.315 356.327L78.288 356.054ZM70.15 365.401L70.241 366.194C71.827 366.051 74.076 365.843 76.247 365.635V364.933C73.985 365.128 71.658 365.297 70.15 365.401ZM72.971 362.073V367.052C72.971 367.234 72.906 367.286 72.711 367.286C72.529 367.299 71.84 367.299 71.125 367.273C71.242 367.494 71.372 367.819 71.424 368.053C72.412 368.053 73.023 368.04 73.413 367.923C73.79 367.806 73.92 367.585 73.92 367.078V362.073H72.971ZM75.441 361.501C74.271 361.787 72.139 362.021 70.358 362.125C70.449 362.307 70.566 362.58 70.592 362.775C72.412 362.684 74.609 362.45 76.039 362.112L75.441 361.501ZM76.52 361.579C76.715 365.284 78.418 368.04 80.667 368.04C81.512 368.04 81.85 367.676 81.993 366.298C81.759 366.22 81.447 366.077 81.239 365.895C81.174 366.831 81.083 367.13 80.719 367.143C79.094 367.169 77.612 364.816 77.456 361.579H76.52ZM79.965 364.413C78.925 365.752 76.845 366.701 74.804 367.221C74.973 367.416 75.233 367.819 75.324 368.014C77.417 367.364 79.614 366.272 80.81 364.699L79.965 364.413ZM78.431 362.151C79.172 362.45 80.069 362.97 80.524 363.36L81.083 362.71C80.615 362.307 79.705 361.839 78.964 361.553L78.431 362.151ZM72.75 356.392C73.101 356.808 73.465 357.406 73.608 357.783L74.505 357.419C74.336 357.042 73.972 356.483 73.582 356.093L72.75 356.392Z" fill="white"/>
<path d="M379.556 310.189C383.343 312.466 384.58 317.391 382.154 321.084C366.325 345.178 345.454 365.594 320.949 380.9C296.444 396.205 268.941 406.003 240.344 409.656C235.962 410.216 232.079 406.943 231.695 402.541L224.648 321.808C224.264 317.406 227.529 313.558 231.887 312.834C245.228 310.615 258.028 305.786 269.542 298.594C281.057 291.402 291.013 282.019 298.859 271.004C301.422 267.406 306.312 266.16 310.099 268.436L379.556 310.189Z" fill="#5AD221"/>
<path d="M223.375 20.1827C223.568 15.7687 227.305 12.33 231.707 12.6991C260.436 15.1073 288.338 23.7016 313.485 37.9289C338.631 52.1561 360.369 71.6465 377.229 95.0313C379.813 98.6152 378.79 103.589 375.106 106.028L307.528 150.757C303.843 153.196 298.904 152.164 296.186 148.68C287.869 138.016 277.516 129.074 265.7 122.389C253.884 115.703 240.886 111.434 227.462 109.797C223.076 109.263 219.647 105.56 219.84 101.146L223.375 20.1827Z" fill="#E9AF1C"/>
<path d="M385.321 123.64C389.24 121.601 394.086 123.119 395.967 127.116C408.242 153.202 414.745 181.664 414.993 210.556C415.24 239.447 409.225 268.016 397.399 294.308C395.587 298.338 390.767 299.938 386.813 297.966L314.293 261.794C310.34 259.822 308.765 255.028 310.424 250.933C315.502 238.399 318.072 224.962 317.956 211.387C317.84 197.811 315.04 184.42 309.748 171.975C308.019 167.909 309.511 163.088 313.431 161.049L385.321 123.64Z" fill="#E32AE7"/>
<path d="M44.6784 300.894C40.759 302.934 35.9128 301.416 34.0317 297.418C21.7576 271.332 15.2544 242.87 15.0073 213.979C14.7602 185.087 20.7757 156.518 32.6019 130.226C34.4143 126.197 39.2338 124.596 43.1876 126.568L115.707 162.741C119.661 164.713 121.236 169.507 119.577 173.602C114.498 186.136 111.928 199.573 112.044 213.149C112.16 226.724 114.96 240.116 120.252 252.561C121.981 256.627 120.488 261.447 116.569 263.487L44.6784 300.894Z" fill="#0FC1A1"/>
<path d="M53.0689 109.107C49.3425 106.733 48.233 101.777 50.7541 98.1487C67.204 74.4731 88.598 54.6063 113.492 39.9423C138.387 25.2784 166.135 16.1984 194.817 13.2892C199.213 12.8434 203.009 16.2163 203.279 20.6264L208.226 101.516C208.496 105.926 205.132 109.687 200.756 110.299C187.363 112.17 174.442 116.665 162.744 123.555C151.047 130.446 140.851 139.567 132.721 150.375C130.065 153.905 125.144 155.024 121.418 152.65L53.0689 109.107Z" fill="#1D72C0"/>
<path d="M215 404.268C215 408.687 211.417 412.285 207.002 412.108C178.196 410.955 149.945 403.586 124.202 390.47C98.4586 377.353 75.8917 358.829 58.0272 336.202C55.2893 332.734 56.0942 327.72 59.6687 325.123L125.232 277.489C128.806 274.892 133.786 275.707 136.653 279.07C145.427 289.36 156.161 297.843 168.257 304.006C180.354 310.169 193.525 313.867 207.008 314.917C211.413 315.26 215 318.81 215 323.228L215 404.268Z" fill="#BABABA"/>
<rect x="193" y="315" width="251" height="97" rx="13" fill="#BABABA"/>
<path d="M248.722 358.095C248.735 358.42 248.735 358.81 248.735 359.109C248.735 359.616 248.735 364.985 248.735 365.518C248.735 365.973 248.709 366.922 248.709 367.091H249.814C249.814 366.922 249.801 366.09 249.801 365.661C249.801 365.128 249.801 359.148 249.801 359.148H256.899C256.899 359.148 256.899 365.18 256.899 365.661C256.899 366.207 256.886 366.948 256.873 367.091H258.004C257.991 366.948 257.978 365.934 257.978 365.518C257.978 365.024 257.978 359.72 257.978 359.109C257.978 358.784 257.978 358.42 258.004 358.108C257.601 358.121 257.133 358.121 256.86 358.121C256.223 358.121 250.568 358.121 249.879 358.121C249.567 358.121 249.229 358.121 248.722 358.095ZM257.328 365.336H249.281V366.35H257.328V365.336ZM261.137 361.371V362.645C261.553 362.619 262.242 362.593 262.957 362.593C263.919 362.593 269.106 362.593 270.094 362.593C270.666 362.593 271.212 362.632 271.485 362.645V361.371C271.186 361.397 270.731 361.449 270.081 361.449C269.119 361.449 263.906 361.449 262.957 361.449C262.216 361.449 261.54 361.41 261.137 361.371ZM275.127 357.484L274.373 358.277C275.348 358.914 276.96 360.318 277.623 360.994L278.429 360.162C277.714 359.447 276.037 358.095 275.127 357.484ZM274.009 366.194L274.685 367.26C276.856 366.857 278.494 366.051 279.807 365.232C281.77 363.997 283.278 362.229 284.162 360.617L283.538 359.499C282.784 361.111 281.211 363.035 279.196 364.296C277.961 365.063 276.271 365.856 274.009 366.194ZM287.334 357.965L287.594 358.94C288.751 358.914 290.545 358.875 292.001 358.68C293.041 358.537 294.25 358.303 295.004 358.121C295.199 358.069 295.446 358.004 295.732 357.926L295.043 357.016C294.406 357.302 292.885 357.614 291.702 357.77C290.285 357.965 288.309 358.017 287.334 357.965ZM288.062 366.831L289.076 367.533C291.507 366.142 292.417 364.231 292.417 361.462C292.417 361.462 292.417 359.408 292.417 358.394L291.377 358.537C291.377 360.318 291.377 361.488 291.377 361.488C291.377 364.166 290.272 365.791 288.062 366.831ZM286.32 361.059V362.138C286.632 362.112 287.061 362.099 287.477 362.099C288.283 362.099 295.251 362.099 296.031 362.099C296.356 362.099 296.759 362.112 297.045 362.138V361.072C296.772 361.098 296.291 361.124 296.018 361.124C295.212 361.124 288.296 361.124 287.464 361.124C287.061 361.124 286.606 361.085 286.32 361.059Z" fill="white"/>
<path d="M281.082 76.6947L280.679 77.3927L286.263 80.6167L286.666 79.9187L281.082 76.6947ZM279.756 78.4964L279.34 79.2169L285.375 82.7009L285.791 81.9804L279.756 78.4964ZM284.487 78.9609L281.633 83.9033L282.399 84.3453L285.253 79.4029L284.487 78.9609ZM282.16 77.6622L280.977 79.7112C280.619 80.3304 279.694 81.3873 278.154 81.4288C278.28 81.6519 278.402 82.0378 278.424 82.2604C280.19 82.1393 281.312 80.8204 281.708 80.1337L282.891 78.0847L282.16 77.6622ZM281.382 72.9503L281.031 73.5582L284.195 75.3847L284.546 74.7768L281.382 72.9503ZM286.572 75.9468L286.221 76.5547L289.408 78.3942L289.759 77.7863L286.572 75.9468ZM290.336 76.0329L285.266 84.8144C285.168 84.9833 285.073 85.0183 284.893 84.9143C284.706 84.8216 284.098 84.4706 283.492 84.0906C283.479 84.3985 283.364 84.8575 283.268 85.1022C284.124 85.5962 284.693 85.9099 285.115 85.9586C285.538 86.0072 285.806 85.802 286.099 85.2954L291.169 76.5139L290.336 76.0329ZM282.353 71.4244L281.976 72.0774L284.791 73.7024L283.348 76.2017L280.533 74.5767L280.163 75.2184L283.777 77.3049L285.967 73.5109L282.353 71.4244ZM290.741 76.2669L286.958 74.0829L284.761 77.8882L288.544 80.0722L288.914 79.4305L285.942 77.7145L287.392 75.2039L290.364 76.9199L290.741 76.2669ZM281.847 71.1319L276.14 81.0167L276.973 81.4977L282.68 71.6129L281.847 71.1319ZM292.613 82.0462L292.151 82.8456L298.344 86.4206L298.805 85.6212L292.613 82.0462ZM293.522 77.8724L293.086 78.6267L296.441 80.5637L296.877 79.8094L293.522 77.8724ZM289.758 83.7153L289.309 84.4922L298.294 89.6792L298.742 88.9023L289.758 83.7153ZM296.584 79.6404L296.486 79.8093C294.74 81.2479 292.064 81.7745 289.979 81.4863C290.057 81.7414 290.136 82.1771 290.138 82.4335C292.447 82.6711 295.217 82.1385 297.326 80.3838L296.919 79.7886L296.742 79.7314L296.584 79.6404ZM293.597 83.1245L292.492 85.0384C291.757 86.3106 290.693 87.4524 287.643 86.8325C287.732 87.0941 287.809 87.5588 287.811 87.8152C291.151 88.4525 292.415 87.0956 293.318 85.5307L294.43 83.6055L293.597 83.1245ZM298.886 80.3843L298.02 80.1692C297.59 82.9682 298.124 85.8133 299.646 87.9082C299.905 87.7723 300.352 87.5953 300.648 87.5257C299.092 85.5919 298.498 82.8771 298.886 80.3843ZM292.441 79.3801C292.743 80.0796 293.071 81.0195 293.184 81.5505L294.04 81.3689C293.915 80.8314 293.563 79.9075 293.248 79.2305L292.441 79.3801ZM300.935 81.6721C300.208 81.943 299.022 82.2038 298.218 82.2953L298.502 82.9996C299.304 82.9371 300.422 82.7421 301.328 82.4995L300.935 81.6721ZM301.527 83.7403C300.738 83.99 299.464 84.2455 298.598 84.3158L298.882 85.0201C299.759 84.9563 300.94 84.7826 301.898 84.5547L301.527 83.7403ZM296.387 84.7655L293.689 89.4378C293.15 90.3722 293.248 90.7741 294.205 91.3266C294.408 91.4436 295.477 92.0611 295.691 92.1846C296.524 92.6656 296.995 92.3968 297.912 90.99C297.702 90.8085 297.448 90.4671 297.341 90.2103C296.601 91.3889 296.415 91.5816 296.054 91.3736C295.829 91.2436 294.94 90.7301 294.771 90.6326C294.377 90.4051 294.348 90.2985 294.556 89.9383L297.254 85.266L296.387 84.7655Z" fill="white"/>
<path d="M123.273 88.4332L123.922 89.295C124.177 89.0708 124.504 88.7918 124.846 88.5337C125.438 88.0877 128.459 85.811 129.041 85.3729C129.331 85.1539 129.71 84.9008 130.037 84.6869L129.388 83.8251C129.111 84.0832 128.752 84.3856 128.462 84.6046C127.88 85.0428 124.859 87.3194 124.257 87.7732C123.914 88.0314 123.598 88.2375 123.273 88.4332ZM124.001 91.9702L124.651 92.8319C124.915 92.5999 125.219 92.3548 125.53 92.1201C126.133 91.6663 131.77 87.4181 132.32 87.0035C132.58 86.8079 132.91 86.5757 133.156 86.4062L132.515 85.5548C132.279 85.7816 131.944 86.0501 131.726 86.2144C131.175 86.6291 125.538 90.8773 124.936 91.3311C124.614 91.5736 124.305 91.7901 124.001 91.9702ZM129.204 88.7006L128.34 89.3681C129.19 90.518 129.874 91.598 129.973 92.8094C130.069 93.779 129.767 94.9341 129.226 95.8791L130.416 95.8608C130.944 94.7468 131.178 93.4151 131.027 92.4378C130.838 91.2137 130.19 90.0087 129.204 88.7006ZM140.284 76.77L139.46 76.7562C139.333 76.9333 139.076 77.1757 138.744 77.4261C138.349 77.7234 135.141 80.1409 134.736 80.446C134.415 80.6885 133.792 81.0929 133.641 81.1739L134.345 82.1083C134.451 82.0118 134.981 81.5478 135.355 81.2662C135.708 81.0002 139.03 78.4966 139.404 78.215C139.783 79.2801 139.956 81.0867 139.853 82.4182C139.675 84.4076 139.088 86.8035 137.891 88.7146L139.079 88.9095C140.157 86.9259 140.71 84.5716 140.895 82.3976C141.037 80.7931 140.731 78.745 140.372 77.4042C140.322 77.2301 140.285 76.9 140.284 76.77ZM140.623 81.756L140.47 82.7834C142.334 82.9247 144.55 83.3383 146.041 83.7613L146.28 82.5882C144.925 82.2584 142.449 81.8455 140.623 81.756ZM150.397 78.5904C150.687 78.9746 151.068 79.5015 151.266 79.8728L152.273 79.1139C151.973 78.8026 151.53 78.2576 151.28 77.9254C150.912 77.4374 147.937 73.5104 146.724 71.9011C146.481 71.5793 146.176 71.1094 145.975 70.7562L144.958 71.5229C145.26 71.8161 145.625 72.2572 145.852 72.5583C146.501 73.42 149.959 78.009 150.397 78.5904ZM147.773 73.6824L148.462 74.596C149.859 74.0962 152.356 73.3703 154.017 73.1118L153.715 71.9555C152.141 72.2632 149.441 73.0442 147.773 73.6824Z" fill="white"/>
<path d="M369.541 200.838H367.968C367.058 200.838 365.979 200.643 365.173 199.395C365.043 199.59 364.705 199.967 364.523 200.097C365.446 201.488 366.824 201.774 367.955 201.774H369.541V200.838ZM369.541 204.01H366.33C365.407 204.01 365.147 204.244 365.147 205.037C365.147 205.206 365.147 205.778 365.147 205.947C365.147 206.649 365.55 206.883 367.071 206.961C367.136 206.714 367.279 206.324 367.422 206.142C366.174 206.116 366.005 206.064 366.005 205.843C366.005 205.713 366.005 205.284 366.005 205.18C366.005 204.972 366.057 204.933 366.343 204.933H369.541V204.01ZM363.405 201.54L363.132 200.669C360.584 201.709 358.79 203.646 357.997 206.35C358.244 206.48 358.634 206.766 358.842 206.987C359.505 204.374 361.169 202.437 363.405 201.54ZM364.315 205.18H364.159C361.273 204.4 359.518 202.047 358.855 199.421C358.647 199.603 358.231 199.85 357.997 199.954C358.829 202.801 360.701 205.245 364.107 206.168L364.354 205.544L364.315 205.375V205.18ZM364.315 199.993H363.431V205.557H364.315V199.993ZM369.541 201.228H368.67V204.478H369.541V201.228ZM366.018 195.495H365.238V199.369H366.018V195.495ZM369.489 195.56H368.709V199.343H369.489V195.56ZM364.276 195.495H363.496V199.369H364.276V195.495ZM367.786 194.884H366.98V199.824H367.786V194.884ZM362.521 195.963H361.715V198.511H359.544V195.963H358.725V199.369H362.521V195.963ZM362.521 195.482H358.127V196.327H362.521V195.482ZM365.498 213.032H364.536V220.013H365.498V213.032ZM369.918 216.087H357.997V217.075H369.918V216.087ZM366.018 208.495H365.238V212.551H366.018V208.495ZM369.489 208.573H368.709V212.564H369.489V208.573ZM364.276 208.495H363.496V212.551H364.276V208.495ZM367.786 207.884H366.98V213.058H367.786V207.884ZM362.521 208.95H361.715V211.641H359.544V208.95H358.725V212.512H362.521V208.95ZM362.521 208.482H358.127V209.353H362.521V208.482Z" fill="white"/>
<path d="M57.51 230.751H58.589C58.563 230.413 58.537 229.997 58.537 229.555C58.537 228.827 58.537 225.798 58.537 225.07C58.537 224.706 58.563 224.251 58.589 223.861H57.51C57.549 224.238 57.575 224.706 57.575 225.07C57.575 225.798 57.575 228.827 57.575 229.581C57.575 229.997 57.549 230.387 57.51 230.751ZM60.773 232.298H61.852C61.826 231.947 61.813 231.557 61.813 231.167C61.813 230.413 61.813 223.354 61.813 222.665C61.813 222.34 61.826 221.924 61.852 221.638H60.773C60.812 221.963 60.838 222.392 60.838 222.665C60.838 223.354 60.838 230.413 60.838 231.167C60.838 231.57 60.812 231.947 60.773 232.298ZM61.293 226.175L61.306 227.267C62.736 227.28 64.01 227.371 65.037 228.021C65.869 228.541 66.61 229.477 67.039 230.478L67.741 229.516C67.182 228.411 66.246 227.436 65.375 226.955C64.283 226.383 62.931 226.175 61.293 226.175ZM56.444 223.185L56.743 223.874C57.237 223.523 58.017 223.081 58.537 222.834L58.225 222.132C57.705 222.392 56.912 222.86 56.444 223.185ZM55.924 221.768L56.223 222.444C56.704 222.08 57.445 221.651 58.004 221.365L57.692 220.676C57.211 220.923 56.405 221.417 55.924 221.768ZM57.666 209.925C57.198 209.925 56.808 209.548 56.808 209.067C56.808 208.599 57.198 208.209 57.666 208.209C58.147 208.209 58.524 208.599 58.524 209.067C58.524 209.548 58.147 209.925 57.666 209.925ZM57.666 210.523C58.472 210.523 59.122 209.873 59.122 209.067C59.122 208.261 58.472 207.611 57.666 207.611C56.86 207.611 56.21 208.261 56.21 209.067C56.21 209.873 56.86 210.523 57.666 210.523ZM58.537 209.392L58.03 210.185C58.095 210.432 58.108 210.679 58.108 210.887C58.108 211.472 58.108 216.659 58.108 217.4C58.108 217.829 58.056 218.349 58.017 218.7H59.174C59.148 218.375 59.122 217.933 59.122 217.413C59.122 216.659 59.122 211.511 59.122 210.757C60.37 210.939 62.19 211.537 63.36 212.46C64.751 213.552 65.856 215.008 66.493 217.53L67.468 216.646C66.714 214.267 65.518 212.72 63.984 211.537C62.658 210.497 60.552 209.873 59.187 209.587C58.94 209.535 58.719 209.483 58.537 209.392ZM58.095 205.492C58.42 205.479 58.81 205.479 59.109 205.479C59.616 205.479 64.985 205.479 65.518 205.479C65.973 205.479 66.922 205.505 67.091 205.505V204.4C66.922 204.4 66.09 204.413 65.661 204.413C65.128 204.413 59.148 204.413 59.148 204.413L59.148 197.315C59.148 197.315 65.18 197.315 65.661 197.315C66.207 197.315 66.948 197.328 67.091 197.341V196.21C66.948 196.223 65.934 196.236 65.518 196.236C65.024 196.236 59.72 196.236 59.109 196.236C58.784 196.236 58.42 196.236 58.108 196.21C58.121 196.613 58.121 197.081 58.121 197.354C58.121 197.991 58.121 203.646 58.121 204.335C58.121 204.647 58.121 204.985 58.095 205.492ZM65.336 196.886L65.336 204.933H66.35V196.886H65.336ZM62.307 193.272L63.321 192.765C62.671 190.672 61.722 188.605 60.838 187.175C59.889 185.654 58.797 184.289 57.64 183.171L56.821 184.042C57.913 184.939 59.031 186.239 59.889 187.604C60.786 189.047 61.709 191.023 62.307 193.272ZM60.422 187.812H66.025C66.506 187.812 67.156 187.851 67.403 187.89V186.603C67.156 186.668 66.506 186.694 66.025 186.694H60.084L60.422 187.812Z" fill="white"/>
</svg>
