<svg width="920" height="41" viewBox="0 0 920 41" fill="none" xmlns="http://www.w3.org/2000/svg">
<rect width="164" height="41" rx="10" fill="#5AD221"/>
<path d="M56.585 21.191V22.01H68.415V21.191H56.585ZM56.897 14.652V15.51H68.09V14.652H56.897ZM61.096 19.826C60.29 21.1 59.081 22.842 58.249 23.895L59.172 24.207C60.004 23.141 61.2 21.438 62.045 20.086L61.096 19.826ZM64.996 21.477C63.956 24.012 61.408 24.935 56.767 25.182C56.923 25.403 57.079 25.754 57.144 26.04C62.019 25.676 64.788 24.61 65.932 21.75L64.996 21.477ZM58.951 23.765C62.253 24.376 65.438 25.26 67.427 26.079L68.012 25.286C65.997 24.493 62.656 23.622 59.445 23.05L58.951 23.765ZM60.446 14.977V19.514H61.369V14.977H60.446ZM63.475 14.977V19.514H64.398V14.977H63.475ZM58.457 17.421H66.569V19.189H58.457V17.421ZM57.547 16.628V19.995H67.544V16.628H57.547ZM76.852 14.249V26.04H77.827V14.249H76.852ZM74.603 14.743C74.304 16.433 73.758 18.11 73.004 19.202C73.251 19.306 73.654 19.54 73.849 19.683C74.59 18.526 75.188 16.745 75.539 14.925L74.603 14.743ZM74.733 16.745L74.486 17.707H80.804V16.745H74.733ZM73.108 20.567V21.529H81.376V20.567H73.108ZM72.471 14.132C71.782 16.108 70.625 18.058 69.403 19.319C69.585 19.553 69.871 20.06 69.962 20.281C71.314 18.812 72.575 16.615 73.394 14.418L72.471 14.132ZM71.158 17.486V26.027H72.094V16.576L72.081 16.563L71.158 17.486ZM84.743 18.058V18.994H92.322V18.058H84.743ZM88.487 21.165V22.088H92.868V21.165H88.487ZM87.967 18.539V24.987L88.981 25.117V18.539H87.967ZM84.886 20.112C84.6 22.465 83.898 24.324 82.442 25.455C82.676 25.598 83.092 25.936 83.248 26.105C84.717 24.831 85.536 22.842 85.9 20.216L84.886 20.112ZM85.497 21.789L84.704 22.088C85.822 25.26 87.941 25.871 91.035 25.871H94.09C94.129 25.585 94.298 25.117 94.454 24.883C93.817 24.896 91.568 24.896 91.087 24.896C88.448 24.896 86.42 24.441 85.497 21.789ZM87.954 14.093V16.199H88.981V14.093H87.954ZM83.066 15.575V18.409H84.028V16.511H92.933V18.409H93.934V15.575H83.066ZM96.274 15.458V16.225H106.739V15.458H96.274ZM96.976 17.031V17.759H106.037V17.031H96.976ZM95.715 18.591V19.371H107.285V18.591H95.715ZM95.702 21.49V22.257H107.324V21.49H95.702ZM100.98 15.835V18.981H101.981V15.835H100.98ZM103.788 14.054C103.606 14.47 103.281 15.081 103.008 15.471L103.827 15.731C104.113 15.38 104.49 14.847 104.815 14.327L103.788 14.054ZM95.65 23.401L95.741 24.194C97.327 24.051 99.576 23.843 101.747 23.635V22.933C99.485 23.128 97.158 23.297 95.65 23.401ZM98.471 20.073V25.052C98.471 25.234 98.406 25.286 98.211 25.286C98.029 25.299 97.34 25.299 96.625 25.273C96.742 25.494 96.872 25.819 96.924 26.053C97.912 26.053 98.523 26.04 98.913 25.923C99.29 25.806 99.42 25.585 99.42 25.078V20.073H98.471ZM100.941 19.501C99.771 19.787 97.639 20.021 95.858 20.125C95.949 20.307 96.066 20.58 96.092 20.775C97.912 20.684 100.109 20.45 101.539 20.112L100.941 19.501ZM102.02 19.579C102.215 23.284 103.918 26.04 106.167 26.04C107.012 26.04 107.35 25.676 107.493 24.298C107.259 24.22 106.947 24.077 106.739 23.895C106.674 24.831 106.583 25.13 106.219 25.143C104.594 25.169 103.112 22.816 102.956 19.579H102.02ZM105.465 22.413C104.425 23.752 102.345 24.701 100.304 25.221C100.473 25.416 100.733 25.819 100.824 26.014C102.917 25.364 105.114 24.272 106.31 22.699L105.465 22.413ZM103.931 20.151C104.672 20.45 105.569 20.97 106.024 21.36L106.583 20.71C106.115 20.307 105.205 19.839 104.464 19.553L103.931 20.151ZM98.25 14.392C98.601 14.808 98.965 15.406 99.108 15.783L100.005 15.419C99.836 15.042 99.472 14.483 99.082 14.093L98.25 14.392Z" fill="white"/>
<path d="M188.561 23.0607C189.146 22.4749 189.146 21.5251 188.561 20.9393L179.015 11.3934C178.429 10.8076 177.479 10.8076 176.893 11.3934C176.308 11.9792 176.308 12.9289 176.893 13.5147L185.379 22L176.893 30.4853C176.308 31.0711 176.308 32.0208 176.893 32.6066C177.479 33.1924 178.429 33.1924 179.015 32.6066L188.561 23.0607ZM164 23.5H174.5V20.5H164V23.5ZM174.5 23.5H187.5V20.5H174.5V23.5Z" fill="white"/>
<rect x="189" width="164" height="41" rx="10" fill="#E32AE7"/>
<path d="M264.448 14.496V16.069C264.448 16.979 264.253 18.058 263.005 18.864C263.2 18.994 263.577 19.332 263.707 19.514C265.098 18.591 265.384 17.213 265.384 16.082V14.496H264.448ZM267.62 14.496V17.707C267.62 18.63 267.854 18.89 268.647 18.89C268.816 18.89 269.388 18.89 269.557 18.89C270.259 18.89 270.493 18.487 270.571 16.966C270.324 16.901 269.934 16.758 269.752 16.615C269.726 17.863 269.674 18.032 269.453 18.032C269.323 18.032 268.894 18.032 268.79 18.032C268.582 18.032 268.543 17.98 268.543 17.694V14.496H267.62ZM265.15 20.632L264.279 20.905C265.319 23.453 267.256 25.247 269.96 26.04C270.09 25.793 270.376 25.403 270.597 25.195C267.984 24.532 266.047 22.868 265.15 20.632ZM268.79 19.722V19.878C268.01 22.764 265.657 24.519 263.031 25.182C263.213 25.39 263.46 25.806 263.564 26.04C266.411 25.208 268.855 23.336 269.778 19.93L269.154 19.683L268.985 19.722H268.79ZM263.603 19.722V20.606H269.167V19.722H263.603ZM264.838 14.496V15.367H268.088V14.496H264.838ZM259.105 18.019V18.799H262.979V18.019H259.105ZM259.17 14.548V15.328H262.953V14.548H259.17ZM259.105 19.761V20.541H262.979V19.761H259.105ZM258.494 16.251V17.057H263.434V16.251H258.494ZM259.573 21.516V22.322H262.121V24.493H259.573V25.312H262.979V21.516H259.573ZM259.092 21.516V25.91H259.937V21.516H259.092ZM276.642 18.539V19.501H283.623V18.539H276.642ZM279.697 14.119V26.04H280.685V14.119H279.697ZM272.105 18.019V18.799H276.161V18.019H272.105ZM272.183 14.548V15.328H276.174V14.548H272.183ZM272.105 19.761V20.541H276.161V19.761H272.105ZM271.494 16.251V17.057H276.668V16.251H271.494ZM272.56 21.516V22.322H275.251V24.493H272.56V25.312H276.122V21.516H272.56ZM272.092 21.516V25.91H272.963V21.516H272.092Z" fill="white"/>
<path d="M377.561 23.0607C378.146 22.4749 378.146 21.5251 377.561 20.9393L368.015 11.3934C367.429 10.8076 366.479 10.8076 365.893 11.3934C365.308 11.9792 365.308 12.9289 365.893 13.5147L374.379 22L365.893 30.4853C365.308 31.0711 365.308 32.0208 365.893 32.6066C366.479 33.1924 367.429 33.1924 368.015 32.6066L377.561 23.0607ZM353 23.5H363.5V20.5H353V23.5ZM363.5 23.5H376.5V20.5H363.5V23.5Z" fill="white"/>
<rect x="378" width="164" height="41" rx="10" fill="#E9AF1C"/>
<path d="M450.263 19.839V20.645H456.711V19.839H450.263ZM450.016 22.062V22.894H456.984V22.062H450.016ZM454.345 20.099V25.806H455.229V20.099H454.345ZM451.68 20.138V22.504C451.68 23.219 451.407 24.597 450.094 25.403C450.315 25.533 450.614 25.806 450.744 25.988C452.213 25 452.525 23.297 452.525 22.504V20.138H451.68ZM448.651 16.446V17.148H452.304V16.446H448.651ZM454.644 16.446V17.148H458.323V16.446H454.644ZM457.946 14.639V24.779C457.946 24.974 457.881 25.052 457.673 25.052C457.465 25.065 456.763 25.065 456.048 25.039C456.191 25.312 456.321 25.767 456.36 26.027C457.348 26.027 457.998 26.014 458.388 25.845C458.778 25.676 458.908 25.364 458.908 24.779V14.639H457.946ZM448.729 14.639V15.393H451.979V18.279H448.729V19.02H452.902V14.639H448.729ZM458.414 14.639H454.046V19.033H458.414V18.292H454.982V15.393H458.414V14.639ZM448.144 14.639V26.053H449.106V14.639H448.144ZM462.925 18.708V19.631H470.075V18.708H462.925ZM461.625 14.639V15.51H465.499V14.639H461.625ZM461.287 21.581V22.478H471.661V21.581H461.287ZM465.161 14.639V14.834C464.368 16.953 462.314 18.747 460.364 19.54C460.559 19.722 460.845 20.06 460.975 20.281C463.094 19.332 465.226 17.486 466.175 14.912L465.525 14.6L465.343 14.639H465.161ZM464.316 19.15V21.36C464.316 22.829 463.965 24.35 461.014 25.338C461.222 25.52 461.521 25.884 461.651 26.105C464.862 24.987 465.278 23.18 465.278 21.373V19.15H464.316ZM467.527 14.132L466.669 14.379C467.696 17.018 469.581 19.215 471.947 20.268C472.103 20.021 472.402 19.644 472.623 19.436C470.309 18.539 468.437 16.485 467.527 14.132ZM461.443 16.485C462.054 16.94 462.808 17.59 463.172 17.993L463.822 17.408C463.445 17.005 462.678 16.381 462.067 15.952L461.443 16.485ZM469.945 14.223C469.451 14.821 468.554 15.64 467.904 16.121L468.502 16.589C469.165 16.134 470.036 15.406 470.699 14.743L469.945 14.223ZM471.492 15.718C470.933 16.329 469.958 17.187 469.243 17.681L469.841 18.149C470.569 17.655 471.505 16.914 472.22 16.238L471.492 15.718ZM467.553 19.176V24.571C467.553 25.65 467.839 25.949 468.944 25.949C469.178 25.949 470.413 25.949 470.66 25.949C471.622 25.949 471.895 25.481 471.986 23.804C471.713 23.752 471.323 23.583 471.102 23.414C471.05 24.805 470.985 25.065 470.569 25.065C470.309 25.065 469.282 25.065 469.087 25.065C468.632 25.065 468.554 24.987 468.554 24.571V19.176H467.553Z" fill="white"/>
<path d="M566.561 23.0607C567.146 22.4749 567.146 21.5251 566.561 20.9393L557.015 11.3934C556.429 10.8076 555.479 10.8076 554.893 11.3934C554.308 11.9792 554.308 12.9289 554.893 13.5147L563.379 22L554.893 30.4853C554.308 31.0711 554.308 32.0208 554.893 32.6066C555.479 33.1924 556.429 33.1924 557.015 32.6066L566.561 23.0607ZM542 23.5H552.5V20.5H542V23.5ZM552.5 23.5H565.5V20.5H552.5V23.5Z" fill="white"/>
<rect x="756" width="164" height="41" rx="10" fill="#0FC1A1"/>
<path d="M814.639 15.51V16.589C814.977 16.563 815.393 16.537 815.835 16.537C816.563 16.537 819.592 16.537 820.32 16.537C820.684 16.537 821.139 16.563 821.529 16.589V15.51C821.152 15.549 820.684 15.575 820.32 15.575C819.592 15.575 816.563 15.575 815.809 15.575C815.393 15.575 815.003 15.549 814.639 15.51ZM813.092 18.773V19.852C813.443 19.826 813.833 19.813 814.223 19.813C814.977 19.813 822.036 19.813 822.725 19.813C823.05 19.813 823.466 19.826 823.752 19.852V18.773C823.427 18.812 822.998 18.838 822.725 18.838C822.036 18.838 814.977 18.838 814.223 18.838C813.82 18.838 813.443 18.812 813.092 18.773ZM819.215 19.293L818.123 19.306C818.11 20.736 818.019 22.01 817.369 23.037C816.849 23.869 815.913 24.61 814.912 25.039L815.874 25.741C816.979 25.182 817.954 24.246 818.435 23.375C819.007 22.283 819.215 20.931 819.215 19.293ZM822.205 14.444L821.516 14.743C821.867 15.237 822.309 16.017 822.556 16.537L823.258 16.225C822.998 15.705 822.53 14.912 822.205 14.444ZM823.622 13.924L822.946 14.223C823.31 14.704 823.739 15.445 824.025 16.004L824.714 15.692C824.467 15.211 823.973 14.405 823.622 13.924ZM835.465 15.666C835.465 15.198 835.842 14.808 836.323 14.808C836.791 14.808 837.181 15.198 837.181 15.666C837.181 16.147 836.791 16.524 836.323 16.524C835.842 16.524 835.465 16.147 835.465 15.666ZM834.867 15.666C834.867 16.472 835.517 17.122 836.323 17.122C837.129 17.122 837.779 16.472 837.779 15.666C837.779 14.86 837.129 14.21 836.323 14.21C835.517 14.21 834.867 14.86 834.867 15.666ZM835.998 16.537L835.205 16.03C834.958 16.095 834.711 16.108 834.503 16.108C833.918 16.108 828.731 16.108 827.99 16.108C827.561 16.108 827.041 16.056 826.69 16.017V17.174C827.015 17.148 827.457 17.122 827.977 17.122C828.731 17.122 833.879 17.122 834.633 17.122C834.451 18.37 833.853 20.19 832.93 21.36C831.838 22.751 830.382 23.856 827.86 24.493L828.744 25.468C831.123 24.714 832.67 23.518 833.853 21.984C834.893 20.658 835.517 18.552 835.803 17.187C835.855 16.94 835.907 16.719 835.998 16.537ZM839.898 16.095C839.911 16.42 839.911 16.81 839.911 17.109C839.911 17.616 839.911 22.985 839.911 23.518C839.911 23.973 839.885 24.922 839.885 25.091H840.99C840.99 24.922 840.977 24.09 840.977 23.661C840.977 23.128 840.977 17.148 840.977 17.148H848.075C848.075 17.148 848.075 23.18 848.075 23.661C848.075 24.207 848.062 24.948 848.049 25.091H849.18C849.167 24.948 849.154 23.934 849.154 23.518C849.154 23.024 849.154 17.72 849.154 17.109C849.154 16.784 849.154 16.42 849.18 16.108C848.777 16.121 848.309 16.121 848.036 16.121C847.399 16.121 841.744 16.121 841.055 16.121C840.743 16.121 840.405 16.121 839.898 16.095ZM848.504 23.336H840.457V24.35H848.504V23.336ZM852.118 20.307L852.625 21.321C854.718 20.671 856.785 19.722 858.215 18.838C859.736 17.889 861.101 16.797 862.219 15.64L861.348 14.821C860.451 15.913 859.151 17.031 857.786 17.889C856.343 18.786 854.367 19.709 852.118 20.307ZM857.578 18.422V24.025C857.578 24.506 857.539 25.156 857.5 25.403H858.787C858.722 25.156 858.696 24.506 858.696 24.025V18.084L857.578 18.422Z" fill="white"/>
<rect x="567" width="164" height="41" rx="10" fill="#1D72C0"/>
<path d="M632.282 15.393V16.472C632.62 16.446 633.049 16.42 633.478 16.42C634.219 16.42 638.002 16.42 638.73 16.42C639.094 16.42 639.549 16.446 639.939 16.472V15.393C639.562 15.432 639.094 15.458 638.73 15.458C638.002 15.458 634.219 15.458 633.465 15.458C633.036 15.458 632.659 15.432 632.282 15.393ZM630.735 18.656V19.735C631.086 19.709 631.476 19.696 631.866 19.696C632.62 19.696 639.679 19.696 640.368 19.696C640.693 19.696 641.096 19.709 641.395 19.722V18.656C641.07 18.695 640.641 18.708 640.368 18.708C639.679 18.708 632.62 18.708 631.866 18.708C631.463 18.708 631.086 18.695 630.735 18.656ZM636.858 19.176L635.766 19.189C635.753 20.619 635.649 21.893 634.999 22.92C634.492 23.752 633.556 24.493 632.555 24.922L633.517 25.624C634.609 25.052 635.597 24.129 636.065 23.258C636.65 22.166 636.858 20.814 636.858 19.176ZM652.887 16.316L652.237 15.809C652.029 15.874 651.678 15.913 651.262 15.913C650.768 15.913 646.751 15.913 646.244 15.913C645.841 15.913 645.1 15.861 644.931 15.835V17.005C645.074 16.992 645.776 16.94 646.244 16.94C646.686 16.94 650.846 16.94 651.314 16.94C650.976 18.019 650.027 19.566 649.143 20.567C647.804 22.049 645.893 23.609 643.787 24.415L644.619 25.286C646.673 24.35 648.532 22.803 649.988 21.178C651.067 19.982 652.055 18.162 652.575 16.875C652.64 16.706 652.809 16.42 652.887 16.316ZM650.157 20.502L649.416 21.23C650.82 22.465 652.341 24.129 653.277 25.364L654.174 24.571C653.29 23.492 651.561 21.672 650.157 20.502ZM659.868 23.856C659.868 24.337 659.855 24.987 659.79 25.403H661.051C660.999 24.974 660.973 24.272 660.973 23.856C660.973 23.245 660.96 18.318 660.96 16.303C660.96 15.9 660.999 15.341 661.051 14.938H659.777C659.842 15.354 659.868 15.926 659.868 16.303C659.868 17.382 659.868 23.128 659.868 23.856ZM660.726 18.357V19.501C662.143 19.943 664.574 20.866 666.056 21.659L666.511 20.554C665.068 19.852 662.442 18.851 660.726 18.357Z" fill="white"/>
<path d="M755.561 23.0607C756.146 22.4749 756.146 21.5251 755.561 20.9393L746.015 11.3934C745.429 10.8076 744.479 10.8076 743.893 11.3934C743.308 11.9792 743.308 12.9289 743.893 13.5147L752.379 22L743.893 30.4853C743.308 31.0711 743.308 32.0208 743.893 32.6066C744.479 33.1924 745.429 33.1924 746.015 32.6066L755.561 23.0607ZM731 23.5H741.5V20.5H731V23.5ZM741.5 23.5H754.5V20.5H741.5V23.5Z" fill="white"/>
</svg>
